<?xml version="1.0" encoding="UTF-8"?>
<svg width="96" height="96" viewBox="0 0 96 96" xmlns="http://www.w3.org/2000/svg">
  <line x1="86.244" y1="30.912" x2="86.643" y2="31.725" stroke="#C9A84C" stroke-width="0.720" opacity="0.659" stroke-linecap="round"/>
  <line x1="86.643" y1="31.725" x2="86.937" y2="32.597" stroke="#C9A84C" stroke-width="0.741" opacity="0.677" stroke-linecap="round"/>
  <line x1="86.937" y1="32.597" x2="87.124" y2="33.525" stroke="#C9A84C" stroke-width="0.762" opacity="0.696" stroke-linecap="round"/>
  <line x1="87.124" y1="33.525" x2="87.204" y2="34.506" stroke="#C9A84C" stroke-width="0.782" opacity="0.714" stroke-linecap="round"/>
  <line x1="87.204" y1="34.506" x2="87.177" y2="35.538" stroke="#C9A84C" stroke-width="0.803" opacity="0.732" stroke-linecap="round"/>
  <line x1="87.177" y1="35.538" x2="87.042" y2="36.617" stroke="#C9A84C" stroke-width="0.823" opacity="0.749" stroke-linecap="round"/>
  <line x1="87.042" y1="36.617" x2="86.800" y2="37.741" stroke="#C9A84C" stroke-width="0.843" opacity="0.767" stroke-linecap="round"/>
  <line x1="86.800" y1="37.741" x2="86.452" y2="38.908" stroke="#C9A84C" stroke-width="0.862" opacity="0.784" stroke-linecap="round"/>
  <line x1="86.452" y1="38.908" x2="85.998" y2="40.113" stroke="#C9A84C" stroke-width="0.881" opacity="0.801" stroke-linecap="round"/>
  <line x1="85.998" y1="40.113" x2="85.440" y2="41.353" stroke="#C9A84C" stroke-width="0.900" opacity="0.817" stroke-linecap="round"/>
  <line x1="85.440" y1="41.353" x2="84.780" y2="42.625" stroke="#C9A84C" stroke-width="0.918" opacity="0.833" stroke-linecap="round"/>
  <line x1="84.780" y1="42.625" x2="84.018" y2="43.925" stroke="#C9A84C" stroke-width="0.936" opacity="0.848" stroke-linecap="round"/>
  <line x1="84.018" y1="43.925" x2="83.158" y2="45.250" stroke="#C9A84C" stroke-width="0.953" opacity="0.863" stroke-linecap="round"/>
  <line x1="83.158" y1="45.250" x2="82.202" y2="46.597" stroke="#C9A84C" stroke-width="0.969" opacity="0.877" stroke-linecap="round"/>
  <line x1="82.202" y1="46.597" x2="81.152" y2="47.961" stroke="#C9A84C" stroke-width="0.984" opacity="0.891" stroke-linecap="round"/>
  <line x1="81.152" y1="47.961" x2="80.011" y2="49.339" stroke="#C9A84C" stroke-width="0.999" opacity="0.904" stroke-linecap="round"/>
  <line x1="80.011" y1="49.339" x2="78.782" y2="50.727" stroke="#C9A84C" stroke-width="1.013" opacity="0.916" stroke-linecap="round"/>
  <line x1="78.782" y1="50.727" x2="77.469" y2="52.121" stroke="#C9A84C" stroke-width="1.026" opacity="0.928" stroke-linecap="round"/>
  <line x1="77.469" y1="52.121" x2="76.075" y2="53.517" stroke="#C9A84C" stroke-width="1.039" opacity="0.938" stroke-linecap="round"/>
  <line x1="76.075" y1="53.517" x2="74.604" y2="54.912" stroke="#C9A84C" stroke-width="1.050" opacity="0.948" stroke-linecap="round"/>
  <line x1="74.604" y1="54.912" x2="73.061" y2="56.302" stroke="#C9A84C" stroke-width="1.060" opacity="0.958" stroke-linecap="round"/>
  <line x1="73.061" y1="56.302" x2="71.448" y2="57.682" stroke="#C9A84C" stroke-width="1.070" opacity="0.966" stroke-linecap="round"/>
  <line x1="71.448" y1="57.682" x2="69.771" y2="59.050" stroke="#C9A84C" stroke-width="1.078" opacity="0.973" stroke-linecap="round"/>
  <line x1="69.771" y1="59.050" x2="68.035" y2="60.401" stroke="#C9A84C" stroke-width="1.086" opacity="0.980" stroke-linecap="round"/>
  <line x1="68.035" y1="60.401" x2="66.244" y2="61.732" stroke="#C9A84C" stroke-width="1.092" opacity="0.986" stroke-linecap="round"/>
  <line x1="66.244" y1="61.732" x2="64.403" y2="63.039" stroke="#C9A84C" stroke-width="1.098" opacity="0.990" stroke-linecap="round"/>
  <line x1="64.403" y1="63.039" x2="62.516" y2="64.319" stroke="#C9A84C" stroke-width="1.102" opacity="0.994" stroke-linecap="round"/>
  <line x1="62.516" y1="64.319" x2="60.590" y2="65.567" stroke="#C9A84C" stroke-width="1.105" opacity="0.997" stroke-linecap="round"/>
  <line x1="60.590" y1="65.567" x2="58.630" y2="66.781" stroke="#C9A84C" stroke-width="1.108" opacity="0.999" stroke-linecap="round"/>
  <line x1="58.630" y1="66.781" x2="56.640" y2="67.957" stroke="#C9A84C" stroke-width="1.109" opacity="1.000" stroke-linecap="round"/>
  <line x1="56.640" y1="67.957" x2="54.627" y2="69.092" stroke="#C9A84C" stroke-width="1.109" opacity="1.000" stroke-linecap="round"/>
  <line x1="54.627" y1="69.092" x2="52.595" y2="70.183" stroke="#C9A84C" stroke-width="1.108" opacity="0.999" stroke-linecap="round"/>
  <line x1="52.595" y1="70.183" x2="50.551" y2="71.227" stroke="#C9A84C" stroke-width="1.105" opacity="0.997" stroke-linecap="round"/>
  <line x1="50.551" y1="71.227" x2="48.500" y2="72.221" stroke="#C9A84C" stroke-width="1.102" opacity="0.994" stroke-linecap="round"/>
  <line x1="48.500" y1="72.221" x2="46.447" y2="73.162" stroke="#C9A84C" stroke-width="1.098" opacity="0.990" stroke-linecap="round"/>
  <line x1="46.447" y1="73.162" x2="44.399" y2="74.048" stroke="#C9A84C" stroke-width="1.092" opacity="0.986" stroke-linecap="round"/>
  <line x1="44.399" y1="74.048" x2="42.361" y2="74.876" stroke="#C9A84C" stroke-width="1.086" opacity="0.980" stroke-linecap="round"/>
  <line x1="42.361" y1="74.876" x2="40.338" y2="75.644" stroke="#C9A84C" stroke-width="1.078" opacity="0.973" stroke-linecap="round"/>
  <line x1="40.338" y1="75.644" x2="38.336" y2="76.350" stroke="#C9A84C" stroke-width="1.070" opacity="0.966" stroke-linecap="round"/>
  <line x1="38.336" y1="76.350" x2="36.361" y2="76.992" stroke="#C9A84C" stroke-width="1.060" opacity="0.958" stroke-linecap="round"/>
  <line x1="36.361" y1="76.992" x2="34.417" y2="77.568" stroke="#C9A84C" stroke-width="1.050" opacity="0.948" stroke-linecap="round"/>
  <line x1="34.417" y1="77.568" x2="32.511" y2="78.077" stroke="#C9A84C" stroke-width="1.039" opacity="0.938" stroke-linecap="round"/>
  <line x1="32.511" y1="78.077" x2="30.647" y2="78.517" stroke="#C9A84C" stroke-width="1.026" opacity="0.928" stroke-linecap="round"/>
  <line x1="30.647" y1="78.517" x2="28.831" y2="78.888" stroke="#C9A84C" stroke-width="1.013" opacity="0.916" stroke-linecap="round"/>
  <line x1="28.831" y1="78.888" x2="27.067" y2="79.187" stroke="#C9A84C" stroke-width="0.999" opacity="0.904" stroke-linecap="round"/>
  <line x1="27.067" y1="79.187" x2="25.361" y2="79.414" stroke="#C9A84C" stroke-width="0.984" opacity="0.891" stroke-linecap="round"/>
  <line x1="25.361" y1="79.414" x2="23.716" y2="79.569" stroke="#C9A84C" stroke-width="0.969" opacity="0.877" stroke-linecap="round"/>
  <line x1="23.716" y1="79.569" x2="22.139" y2="79.651" stroke="#C9A84C" stroke-width="0.953" opacity="0.863" stroke-linecap="round"/>
  <line x1="22.139" y1="79.651" x2="20.632" y2="79.660" stroke="#C9A84C" stroke-width="0.936" opacity="0.848" stroke-linecap="round"/>
  <line x1="20.632" y1="79.660" x2="19.200" y2="79.596" stroke="#C9A84C" stroke-width="0.918" opacity="0.833" stroke-linecap="round"/>
  <line x1="19.200" y1="79.596" x2="17.847" y2="79.459" stroke="#C9A84C" stroke-width="0.900" opacity="0.817" stroke-linecap="round"/>
  <line x1="17.847" y1="79.459" x2="16.577" y2="79.250" stroke="#C9A84C" stroke-width="0.881" opacity="0.801" stroke-linecap="round"/>
  <line x1="16.577" y1="79.250" x2="15.393" y2="78.968" stroke="#C9A84C" stroke-width="0.862" opacity="0.784" stroke-linecap="round"/>
  <line x1="15.393" y1="78.968" x2="14.298" y2="78.616" stroke="#C9A84C" stroke-width="0.843" opacity="0.767" stroke-linecap="round"/>
  <line x1="14.298" y1="78.616" x2="13.296" y2="78.193" stroke="#C9A84C" stroke-width="0.823" opacity="0.749" stroke-linecap="round"/>
  <line x1="13.296" y1="78.193" x2="12.388" y2="77.701" stroke="#C9A84C" stroke-width="0.803" opacity="0.732" stroke-linecap="round"/>
  <line x1="12.388" y1="77.701" x2="11.579" y2="77.141" stroke="#C9A84C" stroke-width="0.782" opacity="0.714" stroke-linecap="round"/>
  <line x1="11.579" y1="77.141" x2="10.869" y2="76.515" stroke="#C9A84C" stroke-width="0.762" opacity="0.696" stroke-linecap="round"/>
  <line x1="10.869" y1="76.515" x2="10.261" y2="75.825" stroke="#C9A84C" stroke-width="0.741" opacity="0.677" stroke-linecap="round"/>
  <line x1="10.261" y1="75.825" x2="9.756" y2="75.072" stroke="#C9A84C" stroke-width="0.720" opacity="0.659" stroke-linecap="round"/>
  <line x1="9.756" y1="75.072" x2="9.357" y2="74.259" stroke="#C9A84C" stroke-width="0.699" opacity="0.641" stroke-linecap="round"/>
  <line x1="9.357" y1="74.259" x2="9.063" y2="73.387" stroke="#C9A84C" stroke-width="0.678" opacity="0.623" stroke-linecap="round"/>
  <line x1="9.063" y1="73.387" x2="8.876" y2="72.459" stroke="#C9A84C" stroke-width="0.658" opacity="0.604" stroke-linecap="round"/>
  <line x1="8.876" y1="72.459" x2="8.796" y2="71.478" stroke="#C9A84C" stroke-width="0.637" opacity="0.586" stroke-linecap="round"/>
  <line x1="8.796" y1="71.478" x2="8.823" y2="70.446" stroke="#C9A84C" stroke-width="0.616" opacity="0.568" stroke-linecap="round"/>
  <line x1="8.823" y1="70.446" x2="8.958" y2="69.367" stroke="#C9A84C" stroke-width="0.596" opacity="0.551" stroke-linecap="round"/>
  <line x1="8.958" y1="69.367" x2="9.200" y2="68.243" stroke="#C9A84C" stroke-width="0.576" opacity="0.533" stroke-linecap="round"/>
  <line x1="9.200" y1="68.243" x2="9.548" y2="67.076" stroke="#C9A84C" stroke-width="0.557" opacity="0.516" stroke-linecap="round"/>
  <line x1="9.548" y1="67.076" x2="10.002" y2="65.871" stroke="#C9A84C" stroke-width="0.538" opacity="0.499" stroke-linecap="round"/>
  <line x1="10.002" y1="65.871" x2="10.560" y2="64.631" stroke="#C9A84C" stroke-width="0.519" opacity="0.483" stroke-linecap="round"/>
  <line x1="10.560" y1="64.631" x2="11.220" y2="63.359" stroke="#C9A84C" stroke-width="0.501" opacity="0.467" stroke-linecap="round"/>
  <line x1="11.220" y1="63.359" x2="11.982" y2="62.059" stroke="#C9A84C" stroke-width="0.484" opacity="0.452" stroke-linecap="round"/>
  <line x1="11.982" y1="62.059" x2="12.842" y2="60.734" stroke="#C9A84C" stroke-width="0.467" opacity="0.437" stroke-linecap="round"/>
  <line x1="12.842" y1="60.734" x2="13.798" y2="59.387" stroke="#C9A84C" stroke-width="0.450" opacity="0.423" stroke-linecap="round"/>
  <line x1="13.798" y1="59.387" x2="14.848" y2="58.023" stroke="#C9A84C" stroke-width="0.435" opacity="0.409" stroke-linecap="round"/>
  <line x1="14.848" y1="58.023" x2="15.989" y2="56.645" stroke="#C9A84C" stroke-width="0.420" opacity="0.396" stroke-linecap="round"/>
  <line x1="15.989" y1="56.645" x2="17.218" y2="55.257" stroke="#C9A84C" stroke-width="0.406" opacity="0.384" stroke-linecap="round"/>
  <line x1="17.218" y1="55.257" x2="18.531" y2="53.863" stroke="#C9A84C" stroke-width="0.393" opacity="0.372" stroke-linecap="round"/>
  <line x1="18.531" y1="53.863" x2="19.925" y2="52.467" stroke="#C9A84C" stroke-width="0.381" opacity="0.362" stroke-linecap="round"/>
  <line x1="19.925" y1="52.467" x2="21.396" y2="51.072" stroke="#C9A84C" stroke-width="0.369" opacity="0.352" stroke-linecap="round"/>
  <line x1="21.396" y1="51.072" x2="22.939" y2="49.682" stroke="#C9A84C" stroke-width="0.359" opacity="0.342" stroke-linecap="round"/>
  <line x1="22.939" y1="49.682" x2="24.552" y2="48.302" stroke="#C9A84C" stroke-width="0.349" opacity="0.334" stroke-linecap="round"/>
  <line x1="24.552" y1="48.302" x2="26.229" y2="46.934" stroke="#C9A84C" stroke-width="0.341" opacity="0.327" stroke-linecap="round"/>
  <line x1="26.229" y1="46.934" x2="27.965" y2="45.583" stroke="#C9A84C" stroke-width="0.333" opacity="0.320" stroke-linecap="round"/>
  <line x1="27.965" y1="45.583" x2="29.756" y2="44.252" stroke="#C9A84C" stroke-width="0.327" opacity="0.314" stroke-linecap="round"/>
  <line x1="29.756" y1="44.252" x2="31.597" y2="42.945" stroke="#C9A84C" stroke-width="0.321" opacity="0.310" stroke-linecap="round"/>
  <line x1="31.597" y1="42.945" x2="33.484" y2="41.665" stroke="#C9A84C" stroke-width="0.317" opacity="0.306" stroke-linecap="round"/>
  <line x1="33.484" y1="41.665" x2="35.410" y2="40.417" stroke="#C9A84C" stroke-width="0.314" opacity="0.303" stroke-linecap="round"/>
  <line x1="35.410" y1="40.417" x2="37.370" y2="39.203" stroke="#C9A84C" stroke-width="0.312" opacity="0.301" stroke-linecap="round"/>
  <line x1="37.370" y1="39.203" x2="39.360" y2="38.027" stroke="#C9A84C" stroke-width="0.311" opacity="0.300" stroke-linecap="round"/>
  <line x1="39.360" y1="38.027" x2="41.373" y2="36.892" stroke="#C9A84C" stroke-width="0.311" opacity="0.300" stroke-linecap="round"/>
  <line x1="41.373" y1="36.892" x2="43.405" y2="35.801" stroke="#C9A84C" stroke-width="0.312" opacity="0.301" stroke-linecap="round"/>
  <line x1="43.405" y1="35.801" x2="45.449" y2="34.757" stroke="#C9A84C" stroke-width="0.314" opacity="0.303" stroke-linecap="round"/>
  <line x1="45.449" y1="34.757" x2="47.500" y2="33.763" stroke="#C9A84C" stroke-width="0.317" opacity="0.306" stroke-linecap="round"/>
  <line x1="47.500" y1="33.763" x2="49.553" y2="32.822" stroke="#C9A84C" stroke-width="0.321" opacity="0.310" stroke-linecap="round"/>
  <line x1="49.553" y1="32.822" x2="51.601" y2="31.936" stroke="#C9A84C" stroke-width="0.327" opacity="0.314" stroke-linecap="round"/>
  <line x1="51.601" y1="31.936" x2="53.639" y2="31.108" stroke="#C9A84C" stroke-width="0.333" opacity="0.320" stroke-linecap="round"/>
  <line x1="53.639" y1="31.108" x2="55.662" y2="30.340" stroke="#C9A84C" stroke-width="0.341" opacity="0.327" stroke-linecap="round"/>
  <line x1="55.662" y1="30.340" x2="57.664" y2="29.634" stroke="#C9A84C" stroke-width="0.349" opacity="0.334" stroke-linecap="round"/>
  <line x1="57.664" y1="29.634" x2="59.639" y2="28.992" stroke="#C9A84C" stroke-width="0.359" opacity="0.342" stroke-linecap="round"/>
  <line x1="59.639" y1="28.992" x2="61.583" y2="28.416" stroke="#C9A84C" stroke-width="0.369" opacity="0.352" stroke-linecap="round"/>
  <line x1="61.583" y1="28.416" x2="63.489" y2="27.907" stroke="#C9A84C" stroke-width="0.381" opacity="0.362" stroke-linecap="round"/>
  <line x1="63.489" y1="27.907" x2="65.353" y2="27.467" stroke="#C9A84C" stroke-width="0.393" opacity="0.372" stroke-linecap="round"/>
  <line x1="65.353" y1="27.467" x2="67.169" y2="27.096" stroke="#C9A84C" stroke-width="0.406" opacity="0.384" stroke-linecap="round"/>
  <line x1="67.169" y1="27.096" x2="68.933" y2="26.797" stroke="#C9A84C" stroke-width="0.420" opacity="0.396" stroke-linecap="round"/>
  <line x1="68.933" y1="26.797" x2="70.639" y2="26.570" stroke="#C9A84C" stroke-width="0.435" opacity="0.409" stroke-linecap="round"/>
  <line x1="70.639" y1="26.570" x2="72.284" y2="26.415" stroke="#C9A84C" stroke-width="0.450" opacity="0.423" stroke-linecap="round"/>
  <line x1="72.284" y1="26.415" x2="73.861" y2="26.333" stroke="#C9A84C" stroke-width="0.467" opacity="0.437" stroke-linecap="round"/>
  <line x1="73.861" y1="26.333" x2="75.368" y2="26.324" stroke="#C9A84C" stroke-width="0.484" opacity="0.452" stroke-linecap="round"/>
  <line x1="75.368" y1="26.324" x2="76.800" y2="26.388" stroke="#C9A84C" stroke-width="0.501" opacity="0.467" stroke-linecap="round"/>
  <line x1="76.800" y1="26.388" x2="78.153" y2="26.525" stroke="#C9A84C" stroke-width="0.519" opacity="0.483" stroke-linecap="round"/>
  <line x1="78.153" y1="26.525" x2="79.423" y2="26.734" stroke="#C9A84C" stroke-width="0.538" opacity="0.499" stroke-linecap="round"/>
  <line x1="79.423" y1="26.734" x2="80.607" y2="27.016" stroke="#C9A84C" stroke-width="0.557" opacity="0.516" stroke-linecap="round"/>
  <line x1="80.607" y1="27.016" x2="81.702" y2="27.368" stroke="#C9A84C" stroke-width="0.576" opacity="0.533" stroke-linecap="round"/>
  <line x1="81.702" y1="27.368" x2="82.704" y2="27.791" stroke="#C9A84C" stroke-width="0.596" opacity="0.551" stroke-linecap="round"/>
  <line x1="82.704" y1="27.791" x2="83.612" y2="28.283" stroke="#C9A84C" stroke-width="0.616" opacity="0.568" stroke-linecap="round"/>
  <line x1="83.612" y1="28.283" x2="84.421" y2="28.843" stroke="#C9A84C" stroke-width="0.637" opacity="0.586" stroke-linecap="round"/>
  <line x1="84.421" y1="28.843" x2="85.131" y2="29.469" stroke="#C9A84C" stroke-width="0.658" opacity="0.604" stroke-linecap="round"/>
  <line x1="85.131" y1="29.469" x2="85.739" y2="30.159" stroke="#C9A84C" stroke-width="0.678" opacity="0.623" stroke-linecap="round"/>
  <line x1="85.739" y1="30.159" x2="86.244" y2="30.912" stroke="#C9A84C" stroke-width="0.699" opacity="0.641" stroke-linecap="round"/>
  <line x1="86.244" y1="25.920" x2="86.643" y2="26.733" stroke="#C9A84C" stroke-width="0.540" opacity="0.494" stroke-linecap="round"/>
  <line x1="86.643" y1="26.733" x2="86.937" y2="27.605" stroke="#C9A84C" stroke-width="0.556" opacity="0.508" stroke-linecap="round"/>
  <line x1="86.937" y1="27.605" x2="87.124" y2="28.533" stroke="#C9A84C" stroke-width="0.571" opacity="0.522" stroke-linecap="round"/>
  <line x1="87.124" y1="28.533" x2="87.204" y2="29.514" stroke="#C9A84C" stroke-width="0.587" opacity="0.535" stroke-linecap="round"/>
  <line x1="87.204" y1="29.514" x2="87.177" y2="30.546" stroke="#C9A84C" stroke-width="0.602" opacity="0.549" stroke-linecap="round"/>
  <line x1="87.177" y1="30.546" x2="87.042" y2="31.625" stroke="#C9A84C" stroke-width="0.617" opacity="0.562" stroke-linecap="round"/>
  <line x1="87.042" y1="31.625" x2="86.800" y2="32.749" stroke="#C9A84C" stroke-width="0.632" opacity="0.575" stroke-linecap="round"/>
  <line x1="86.800" y1="32.749" x2="86.452" y2="33.916" stroke="#C9A84C" stroke-width="0.647" opacity="0.588" stroke-linecap="round"/>
  <line x1="86.452" y1="33.916" x2="85.998" y2="35.121" stroke="#C9A84C" stroke-width="0.661" opacity="0.601" stroke-linecap="round"/>
  <line x1="85.998" y1="35.121" x2="85.440" y2="36.361" stroke="#C9A84C" stroke-width="0.675" opacity="0.613" stroke-linecap="round"/>
  <line x1="85.440" y1="36.361" x2="84.780" y2="37.633" stroke="#C9A84C" stroke-width="0.689" opacity="0.625" stroke-linecap="round"/>
  <line x1="84.780" y1="37.633" x2="84.018" y2="38.933" stroke="#C9A84C" stroke-width="0.702" opacity="0.636" stroke-linecap="round"/>
  <line x1="84.018" y1="38.933" x2="83.158" y2="40.258" stroke="#C9A84C" stroke-width="0.714" opacity="0.647" stroke-linecap="round"/>
  <line x1="83.158" y1="40.258" x2="82.202" y2="41.605" stroke="#C9A84C" stroke-width="0.727" opacity="0.658" stroke-linecap="round"/>
  <line x1="82.202" y1="41.605" x2="81.152" y2="42.969" stroke="#C9A84C" stroke-width="0.738" opacity="0.668" stroke-linecap="round"/>
  <line x1="81.152" y1="42.969" x2="80.011" y2="44.347" stroke="#C9A84C" stroke-width="0.749" opacity="0.678" stroke-linecap="round"/>
  <line x1="80.011" y1="44.347" x2="78.782" y2="45.735" stroke="#C9A84C" stroke-width="0.760" opacity="0.687" stroke-linecap="round"/>
  <line x1="78.782" y1="45.735" x2="77.469" y2="47.129" stroke="#C9A84C" stroke-width="0.770" opacity="0.696" stroke-linecap="round"/>
  <line x1="77.469" y1="47.129" x2="76.075" y2="48.525" stroke="#C9A84C" stroke-width="0.779" opacity="0.704" stroke-linecap="round"/>
  <line x1="76.075" y1="48.525" x2="74.604" y2="49.920" stroke="#C9A84C" stroke-width="0.787" opacity="0.711" stroke-linecap="round"/>
  <line x1="74.604" y1="49.920" x2="73.061" y2="51.310" stroke="#C9A84C" stroke-width="0.795" opacity="0.718" stroke-linecap="round"/>
  <line x1="73.061" y1="51.310" x2="71.448" y2="52.690" stroke="#C9A84C" stroke-width="0.802" opacity="0.724" stroke-linecap="round"/>
  <line x1="71.448" y1="52.690" x2="69.771" y2="54.058" stroke="#C9A84C" stroke-width="0.809" opacity="0.730" stroke-linecap="round"/>
  <line x1="69.771" y1="54.058" x2="68.035" y2="55.409" stroke="#C9A84C" stroke-width="0.814" opacity="0.735" stroke-linecap="round"/>
  <line x1="68.035" y1="55.409" x2="66.244" y2="56.740" stroke="#C9A84C" stroke-width="0.819" opacity="0.739" stroke-linecap="round"/>
  <line x1="66.244" y1="56.740" x2="64.403" y2="58.047" stroke="#C9A84C" stroke-width="0.823" opacity="0.743" stroke-linecap="round"/>
  <line x1="64.403" y1="58.047" x2="62.516" y2="59.327" stroke="#C9A84C" stroke-width="0.827" opacity="0.746" stroke-linecap="round"/>
  <line x1="62.516" y1="59.327" x2="60.590" y2="60.575" stroke="#C9A84C" stroke-width="0.829" opacity="0.748" stroke-linecap="round"/>
  <line x1="60.590" y1="60.575" x2="58.630" y2="61.789" stroke="#C9A84C" stroke-width="0.831" opacity="0.749" stroke-linecap="round"/>
  <line x1="58.630" y1="61.789" x2="56.640" y2="62.965" stroke="#C9A84C" stroke-width="0.831" opacity="0.750" stroke-linecap="round"/>
  <line x1="56.640" y1="62.965" x2="54.627" y2="64.100" stroke="#C9A84C" stroke-width="0.831" opacity="0.750" stroke-linecap="round"/>
  <line x1="54.627" y1="64.100" x2="52.595" y2="65.191" stroke="#C9A84C" stroke-width="0.831" opacity="0.749" stroke-linecap="round"/>
  <line x1="52.595" y1="65.191" x2="50.551" y2="66.235" stroke="#C9A84C" stroke-width="0.829" opacity="0.748" stroke-linecap="round"/>
  <line x1="50.551" y1="66.235" x2="48.500" y2="67.229" stroke="#C9A84C" stroke-width="0.827" opacity="0.746" stroke-linecap="round"/>
  <line x1="48.500" y1="67.229" x2="46.447" y2="68.170" stroke="#C9A84C" stroke-width="0.823" opacity="0.743" stroke-linecap="round"/>
  <line x1="46.447" y1="68.170" x2="44.399" y2="69.056" stroke="#C9A84C" stroke-width="0.819" opacity="0.739" stroke-linecap="round"/>
  <line x1="44.399" y1="69.056" x2="42.361" y2="69.884" stroke="#C9A84C" stroke-width="0.814" opacity="0.735" stroke-linecap="round"/>
  <line x1="42.361" y1="69.884" x2="40.338" y2="70.652" stroke="#C9A84C" stroke-width="0.809" opacity="0.730" stroke-linecap="round"/>
  <line x1="40.338" y1="70.652" x2="38.336" y2="71.358" stroke="#C9A84C" stroke-width="0.802" opacity="0.724" stroke-linecap="round"/>
  <line x1="38.336" y1="71.358" x2="36.361" y2="72.000" stroke="#C9A84C" stroke-width="0.795" opacity="0.718" stroke-linecap="round"/>
  <line x1="36.361" y1="72.000" x2="34.417" y2="72.576" stroke="#C9A84C" stroke-width="0.787" opacity="0.711" stroke-linecap="round"/>
  <line x1="34.417" y1="72.576" x2="32.511" y2="73.085" stroke="#C9A84C" stroke-width="0.779" opacity="0.704" stroke-linecap="round"/>
  <line x1="32.511" y1="73.085" x2="30.647" y2="73.525" stroke="#C9A84C" stroke-width="0.770" opacity="0.696" stroke-linecap="round"/>
  <line x1="30.647" y1="73.525" x2="28.831" y2="73.896" stroke="#C9A84C" stroke-width="0.760" opacity="0.687" stroke-linecap="round"/>
  <line x1="28.831" y1="73.896" x2="27.067" y2="74.195" stroke="#C9A84C" stroke-width="0.749" opacity="0.678" stroke-linecap="round"/>
  <line x1="27.067" y1="74.195" x2="25.361" y2="74.422" stroke="#C9A84C" stroke-width="0.738" opacity="0.668" stroke-linecap="round"/>
  <line x1="25.361" y1="74.422" x2="23.716" y2="74.577" stroke="#C9A84C" stroke-width="0.727" opacity="0.658" stroke-linecap="round"/>
  <line x1="23.716" y1="74.577" x2="22.139" y2="74.659" stroke="#C9A84C" stroke-width="0.714" opacity="0.647" stroke-linecap="round"/>
  <line x1="22.139" y1="74.659" x2="20.632" y2="74.668" stroke="#C9A84C" stroke-width="0.702" opacity="0.636" stroke-linecap="round"/>
  <line x1="20.632" y1="74.668" x2="19.200" y2="74.604" stroke="#C9A84C" stroke-width="0.689" opacity="0.625" stroke-linecap="round"/>
  <line x1="19.200" y1="74.604" x2="17.847" y2="74.467" stroke="#C9A84C" stroke-width="0.675" opacity="0.613" stroke-linecap="round"/>
  <line x1="17.847" y1="74.467" x2="16.577" y2="74.258" stroke="#C9A84C" stroke-width="0.661" opacity="0.601" stroke-linecap="round"/>
  <line x1="16.577" y1="74.258" x2="15.393" y2="73.976" stroke="#C9A84C" stroke-width="0.647" opacity="0.588" stroke-linecap="round"/>
  <line x1="15.393" y1="73.976" x2="14.298" y2="73.624" stroke="#C9A84C" stroke-width="0.632" opacity="0.575" stroke-linecap="round"/>
  <line x1="14.298" y1="73.624" x2="13.296" y2="73.201" stroke="#C9A84C" stroke-width="0.617" opacity="0.562" stroke-linecap="round"/>
  <line x1="13.296" y1="73.201" x2="12.388" y2="72.709" stroke="#C9A84C" stroke-width="0.602" opacity="0.549" stroke-linecap="round"/>
  <line x1="12.388" y1="72.709" x2="11.579" y2="72.149" stroke="#C9A84C" stroke-width="0.587" opacity="0.535" stroke-linecap="round"/>
  <line x1="11.579" y1="72.149" x2="10.869" y2="71.523" stroke="#C9A84C" stroke-width="0.571" opacity="0.522" stroke-linecap="round"/>
  <line x1="10.869" y1="71.523" x2="10.261" y2="70.833" stroke="#C9A84C" stroke-width="0.556" opacity="0.508" stroke-linecap="round"/>
  <line x1="10.261" y1="70.833" x2="9.756" y2="70.080" stroke="#C9A84C" stroke-width="0.540" opacity="0.494" stroke-linecap="round"/>
  <line x1="9.756" y1="70.080" x2="9.357" y2="69.267" stroke="#C9A84C" stroke-width="0.524" opacity="0.481" stroke-linecap="round"/>
  <line x1="9.357" y1="69.267" x2="9.063" y2="68.395" stroke="#C9A84C" stroke-width="0.509" opacity="0.467" stroke-linecap="round"/>
  <line x1="9.063" y1="68.395" x2="8.876" y2="67.467" stroke="#C9A84C" stroke-width="0.493" opacity="0.453" stroke-linecap="round"/>
  <line x1="8.876" y1="67.467" x2="8.796" y2="66.486" stroke="#C9A84C" stroke-width="0.478" opacity="0.440" stroke-linecap="round"/>
  <line x1="8.796" y1="66.486" x2="8.823" y2="65.454" stroke="#C9A84C" stroke-width="0.462" opacity="0.426" stroke-linecap="round"/>
  <line x1="8.823" y1="65.454" x2="8.958" y2="64.375" stroke="#C9A84C" stroke-width="0.447" opacity="0.413" stroke-linecap="round"/>
  <line x1="8.958" y1="64.375" x2="9.200" y2="63.251" stroke="#C9A84C" stroke-width="0.432" opacity="0.400" stroke-linecap="round"/>
  <line x1="9.200" y1="63.251" x2="9.548" y2="62.084" stroke="#C9A84C" stroke-width="0.418" opacity="0.387" stroke-linecap="round"/>
  <line x1="9.548" y1="62.084" x2="10.002" y2="60.879" stroke="#C9A84C" stroke-width="0.403" opacity="0.374" stroke-linecap="round"/>
  <line x1="10.002" y1="60.879" x2="10.560" y2="59.639" stroke="#C9A84C" stroke-width="0.389" opacity="0.362" stroke-linecap="round"/>
  <line x1="10.560" y1="59.639" x2="11.220" y2="58.367" stroke="#C9A84C" stroke-width="0.376" opacity="0.350" stroke-linecap="round"/>
  <line x1="11.220" y1="58.367" x2="11.982" y2="57.067" stroke="#C9A84C" stroke-width="0.363" opacity="0.339" stroke-linecap="round"/>
  <line x1="11.982" y1="57.067" x2="12.842" y2="55.742" stroke="#C9A84C" stroke-width="0.350" opacity="0.328" stroke-linecap="round"/>
  <line x1="12.842" y1="55.742" x2="13.798" y2="54.395" stroke="#C9A84C" stroke-width="0.338" opacity="0.317" stroke-linecap="round"/>
  <line x1="13.798" y1="54.395" x2="14.848" y2="53.031" stroke="#C9A84C" stroke-width="0.326" opacity="0.307" stroke-linecap="round"/>
  <line x1="14.848" y1="53.031" x2="15.989" y2="51.653" stroke="#C9A84C" stroke-width="0.315" opacity="0.297" stroke-linecap="round"/>
  <line x1="15.989" y1="51.653" x2="17.218" y2="50.265" stroke="#C9A84C" stroke-width="0.305" opacity="0.288" stroke-linecap="round"/>
  <line x1="17.218" y1="50.265" x2="18.531" y2="48.871" stroke="#C9A84C" stroke-width="0.295" opacity="0.279" stroke-linecap="round"/>
  <line x1="18.531" y1="48.871" x2="19.925" y2="47.475" stroke="#C9A84C" stroke-width="0.286" opacity="0.271" stroke-linecap="round"/>
  <line x1="19.925" y1="47.475" x2="21.396" y2="46.080" stroke="#C9A84C" stroke-width="0.277" opacity="0.264" stroke-linecap="round"/>
  <line x1="21.396" y1="46.080" x2="22.939" y2="44.690" stroke="#C9A84C" stroke-width="0.269" opacity="0.257" stroke-linecap="round"/>
  <line x1="22.939" y1="44.690" x2="24.552" y2="43.310" stroke="#C9A84C" stroke-width="0.262" opacity="0.251" stroke-linecap="round"/>
  <line x1="24.552" y1="43.310" x2="26.229" y2="41.942" stroke="#C9A84C" stroke-width="0.256" opacity="0.245" stroke-linecap="round"/>
  <line x1="26.229" y1="41.942" x2="27.965" y2="40.591" stroke="#C9A84C" stroke-width="0.250" opacity="0.240" stroke-linecap="round"/>
  <line x1="27.965" y1="40.591" x2="29.756" y2="39.260" stroke="#C9A84C" stroke-width="0.245" opacity="0.236" stroke-linecap="round"/>
  <line x1="29.756" y1="39.260" x2="31.597" y2="37.953" stroke="#C9A84C" stroke-width="0.241" opacity="0.232" stroke-linecap="round"/>
  <line x1="31.597" y1="37.953" x2="33.484" y2="36.673" stroke="#C9A84C" stroke-width="0.238" opacity="0.229" stroke-linecap="round"/>
  <line x1="33.484" y1="36.673" x2="35.410" y2="35.425" stroke="#C9A84C" stroke-width="0.235" opacity="0.227" stroke-linecap="round"/>
  <line x1="35.410" y1="35.425" x2="37.370" y2="34.211" stroke="#C9A84C" stroke-width="0.234" opacity="0.226" stroke-linecap="round"/>
  <line x1="37.370" y1="34.211" x2="39.360" y2="33.035" stroke="#C9A84C" stroke-width="0.233" opacity="0.225" stroke-linecap="round"/>
  <line x1="39.360" y1="33.035" x2="41.373" y2="31.900" stroke="#C9A84C" stroke-width="0.233" opacity="0.225" stroke-linecap="round"/>
  <line x1="41.373" y1="31.900" x2="43.405" y2="30.809" stroke="#C9A84C" stroke-width="0.234" opacity="0.226" stroke-linecap="round"/>
  <line x1="43.405" y1="30.809" x2="45.449" y2="29.765" stroke="#C9A84C" stroke-width="0.235" opacity="0.227" stroke-linecap="round"/>
  <line x1="45.449" y1="29.765" x2="47.500" y2="28.771" stroke="#C9A84C" stroke-width="0.238" opacity="0.229" stroke-linecap="round"/>
  <line x1="47.500" y1="28.771" x2="49.553" y2="27.830" stroke="#C9A84C" stroke-width="0.241" opacity="0.232" stroke-linecap="round"/>
  <line x1="49.553" y1="27.830" x2="51.601" y2="26.944" stroke="#C9A84C" stroke-width="0.245" opacity="0.236" stroke-linecap="round"/>
  <line x1="51.601" y1="26.944" x2="53.639" y2="26.116" stroke="#C9A84C" stroke-width="0.250" opacity="0.240" stroke-linecap="round"/>
  <line x1="53.639" y1="26.116" x2="55.662" y2="25.348" stroke="#C9A84C" stroke-width="0.256" opacity="0.245" stroke-linecap="round"/>
  <line x1="55.662" y1="25.348" x2="57.664" y2="24.642" stroke="#C9A84C" stroke-width="0.262" opacity="0.251" stroke-linecap="round"/>
  <line x1="57.664" y1="24.642" x2="59.639" y2="24.000" stroke="#C9A84C" stroke-width="0.269" opacity="0.257" stroke-linecap="round"/>
  <line x1="59.639" y1="24.000" x2="61.583" y2="23.424" stroke="#C9A84C" stroke-width="0.277" opacity="0.264" stroke-linecap="round"/>
  <line x1="61.583" y1="23.424" x2="63.489" y2="22.915" stroke="#C9A84C" stroke-width="0.286" opacity="0.271" stroke-linecap="round"/>
  <line x1="63.489" y1="22.915" x2="65.353" y2="22.475" stroke="#C9A84C" stroke-width="0.295" opacity="0.279" stroke-linecap="round"/>
  <line x1="65.353" y1="22.475" x2="67.169" y2="22.104" stroke="#C9A84C" stroke-width="0.305" opacity="0.288" stroke-linecap="round"/>
  <line x1="67.169" y1="22.104" x2="68.933" y2="21.805" stroke="#C9A84C" stroke-width="0.315" opacity="0.297" stroke-linecap="round"/>
  <line x1="68.933" y1="21.805" x2="70.639" y2="21.578" stroke="#C9A84C" stroke-width="0.326" opacity="0.307" stroke-linecap="round"/>
  <line x1="70.639" y1="21.578" x2="72.284" y2="21.423" stroke="#C9A84C" stroke-width="0.338" opacity="0.317" stroke-linecap="round"/>
  <line x1="72.284" y1="21.423" x2="73.861" y2="21.341" stroke="#C9A84C" stroke-width="0.350" opacity="0.328" stroke-linecap="round"/>
  <line x1="73.861" y1="21.341" x2="75.368" y2="21.332" stroke="#C9A84C" stroke-width="0.363" opacity="0.339" stroke-linecap="round"/>
  <line x1="75.368" y1="21.332" x2="76.800" y2="21.396" stroke="#C9A84C" stroke-width="0.376" opacity="0.350" stroke-linecap="round"/>
  <line x1="76.800" y1="21.396" x2="78.153" y2="21.533" stroke="#C9A84C" stroke-width="0.389" opacity="0.362" stroke-linecap="round"/>
  <line x1="78.153" y1="21.533" x2="79.423" y2="21.742" stroke="#C9A84C" stroke-width="0.403" opacity="0.374" stroke-linecap="round"/>
  <line x1="79.423" y1="21.742" x2="80.607" y2="22.024" stroke="#C9A84C" stroke-width="0.418" opacity="0.387" stroke-linecap="round"/>
  <line x1="80.607" y1="22.024" x2="81.702" y2="22.376" stroke="#C9A84C" stroke-width="0.432" opacity="0.400" stroke-linecap="round"/>
  <line x1="81.702" y1="22.376" x2="82.704" y2="22.799" stroke="#C9A84C" stroke-width="0.447" opacity="0.413" stroke-linecap="round"/>
  <line x1="82.704" y1="22.799" x2="83.612" y2="23.291" stroke="#C9A84C" stroke-width="0.462" opacity="0.426" stroke-linecap="round"/>
  <line x1="83.612" y1="23.291" x2="84.421" y2="23.851" stroke="#C9A84C" stroke-width="0.478" opacity="0.440" stroke-linecap="round"/>
  <line x1="84.421" y1="23.851" x2="85.131" y2="24.477" stroke="#C9A84C" stroke-width="0.493" opacity="0.453" stroke-linecap="round"/>
  <line x1="85.131" y1="24.477" x2="85.739" y2="25.167" stroke="#C9A84C" stroke-width="0.509" opacity="0.467" stroke-linecap="round"/>
  <line x1="85.739" y1="25.167" x2="86.244" y2="25.920" stroke="#C9A84C" stroke-width="0.524" opacity="0.481" stroke-linecap="round"/>
  <line x1="86.244" y1="20.928" x2="86.643" y2="21.741" stroke="#C9A84C" stroke-width="0.360" opacity="0.330" stroke-linecap="round"/>
  <line x1="86.643" y1="21.741" x2="86.937" y2="22.613" stroke="#C9A84C" stroke-width="0.370" opacity="0.339" stroke-linecap="round"/>
  <line x1="86.937" y1="22.613" x2="87.124" y2="23.541" stroke="#C9A84C" stroke-width="0.381" opacity="0.348" stroke-linecap="round"/>
  <line x1="87.124" y1="23.541" x2="87.204" y2="24.522" stroke="#C9A84C" stroke-width="0.391" opacity="0.357" stroke-linecap="round"/>
  <line x1="87.204" y1="24.522" x2="87.177" y2="25.554" stroke="#C9A84C" stroke-width="0.401" opacity="0.366" stroke-linecap="round"/>
  <line x1="87.177" y1="25.554" x2="87.042" y2="26.633" stroke="#C9A84C" stroke-width="0.412" opacity="0.375" stroke-linecap="round"/>
  <line x1="87.042" y1="26.633" x2="86.800" y2="27.757" stroke="#C9A84C" stroke-width="0.421" opacity="0.383" stroke-linecap="round"/>
  <line x1="86.800" y1="27.757" x2="86.452" y2="28.924" stroke="#C9A84C" stroke-width="0.431" opacity="0.392" stroke-linecap="round"/>
  <line x1="86.452" y1="28.924" x2="85.998" y2="30.129" stroke="#C9A84C" stroke-width="0.441" opacity="0.400" stroke-linecap="round"/>
  <line x1="85.998" y1="30.129" x2="85.440" y2="31.369" stroke="#C9A84C" stroke-width="0.450" opacity="0.409" stroke-linecap="round"/>
  <line x1="85.440" y1="31.369" x2="84.780" y2="32.641" stroke="#C9A84C" stroke-width="0.459" opacity="0.416" stroke-linecap="round"/>
  <line x1="84.780" y1="32.641" x2="84.018" y2="33.941" stroke="#C9A84C" stroke-width="0.468" opacity="0.424" stroke-linecap="round"/>
  <line x1="84.018" y1="33.941" x2="83.158" y2="35.266" stroke="#C9A84C" stroke-width="0.476" opacity="0.432" stroke-linecap="round"/>
  <line x1="83.158" y1="35.266" x2="82.202" y2="36.613" stroke="#C9A84C" stroke-width="0.484" opacity="0.439" stroke-linecap="round"/>
  <line x1="82.202" y1="36.613" x2="81.152" y2="37.977" stroke="#C9A84C" stroke-width="0.492" opacity="0.445" stroke-linecap="round"/>
  <line x1="81.152" y1="37.977" x2="80.011" y2="39.355" stroke="#C9A84C" stroke-width="0.500" opacity="0.452" stroke-linecap="round"/>
  <line x1="80.011" y1="39.355" x2="78.782" y2="40.743" stroke="#C9A84C" stroke-width="0.507" opacity="0.458" stroke-linecap="round"/>
  <line x1="78.782" y1="40.743" x2="77.469" y2="42.137" stroke="#C9A84C" stroke-width="0.513" opacity="0.464" stroke-linecap="round"/>
  <line x1="77.469" y1="42.137" x2="76.075" y2="43.533" stroke="#C9A84C" stroke-width="0.519" opacity="0.469" stroke-linecap="round"/>
  <line x1="76.075" y1="43.533" x2="74.604" y2="44.928" stroke="#C9A84C" stroke-width="0.525" opacity="0.474" stroke-linecap="round"/>
  <line x1="74.604" y1="44.928" x2="73.061" y2="46.318" stroke="#C9A84C" stroke-width="0.530" opacity="0.479" stroke-linecap="round"/>
  <line x1="73.061" y1="46.318" x2="71.448" y2="47.698" stroke="#C9A84C" stroke-width="0.535" opacity="0.483" stroke-linecap="round"/>
  <line x1="71.448" y1="47.698" x2="69.771" y2="49.066" stroke="#C9A84C" stroke-width="0.539" opacity="0.487" stroke-linecap="round"/>
  <line x1="69.771" y1="49.066" x2="68.035" y2="50.417" stroke="#C9A84C" stroke-width="0.543" opacity="0.490" stroke-linecap="round"/>
  <line x1="68.035" y1="50.417" x2="66.244" y2="51.748" stroke="#C9A84C" stroke-width="0.546" opacity="0.493" stroke-linecap="round"/>
  <line x1="66.244" y1="51.748" x2="64.403" y2="53.055" stroke="#C9A84C" stroke-width="0.549" opacity="0.495" stroke-linecap="round"/>
  <line x1="64.403" y1="53.055" x2="62.516" y2="54.335" stroke="#C9A84C" stroke-width="0.551" opacity="0.497" stroke-linecap="round"/>
  <line x1="62.516" y1="54.335" x2="60.590" y2="55.583" stroke="#C9A84C" stroke-width="0.553" opacity="0.499" stroke-linecap="round"/>
  <line x1="60.590" y1="55.583" x2="58.630" y2="56.797" stroke="#C9A84C" stroke-width="0.554" opacity="0.499" stroke-linecap="round"/>
  <line x1="58.630" y1="56.797" x2="56.640" y2="57.973" stroke="#C9A84C" stroke-width="0.554" opacity="0.500" stroke-linecap="round"/>
  <line x1="56.640" y1="57.973" x2="54.627" y2="59.108" stroke="#C9A84C" stroke-width="0.554" opacity="0.500" stroke-linecap="round"/>
  <line x1="54.627" y1="59.108" x2="52.595" y2="60.199" stroke="#C9A84C" stroke-width="0.554" opacity="0.499" stroke-linecap="round"/>
  <line x1="52.595" y1="60.199" x2="50.551" y2="61.243" stroke="#C9A84C" stroke-width="0.553" opacity="0.499" stroke-linecap="round"/>
  <line x1="50.551" y1="61.243" x2="48.500" y2="62.237" stroke="#C9A84C" stroke-width="0.551" opacity="0.497" stroke-linecap="round"/>
  <line x1="48.500" y1="62.237" x2="46.447" y2="63.178" stroke="#C9A84C" stroke-width="0.549" opacity="0.495" stroke-linecap="round"/>
  <line x1="46.447" y1="63.178" x2="44.399" y2="64.064" stroke="#C9A84C" stroke-width="0.546" opacity="0.493" stroke-linecap="round"/>
  <line x1="44.399" y1="64.064" x2="42.361" y2="64.892" stroke="#C9A84C" stroke-width="0.543" opacity="0.490" stroke-linecap="round"/>
  <line x1="42.361" y1="64.892" x2="40.338" y2="65.660" stroke="#C9A84C" stroke-width="0.539" opacity="0.487" stroke-linecap="round"/>
  <line x1="40.338" y1="65.660" x2="38.336" y2="66.366" stroke="#C9A84C" stroke-width="0.535" opacity="0.483" stroke-linecap="round"/>
  <line x1="38.336" y1="66.366" x2="36.361" y2="67.008" stroke="#C9A84C" stroke-width="0.530" opacity="0.479" stroke-linecap="round"/>
  <line x1="36.361" y1="67.008" x2="34.417" y2="67.584" stroke="#C9A84C" stroke-width="0.525" opacity="0.474" stroke-linecap="round"/>
  <line x1="34.417" y1="67.584" x2="32.511" y2="68.093" stroke="#C9A84C" stroke-width="0.519" opacity="0.469" stroke-linecap="round"/>
  <line x1="32.511" y1="68.093" x2="30.647" y2="68.533" stroke="#C9A84C" stroke-width="0.513" opacity="0.464" stroke-linecap="round"/>
  <line x1="30.647" y1="68.533" x2="28.831" y2="68.904" stroke="#C9A84C" stroke-width="0.507" opacity="0.458" stroke-linecap="round"/>
  <line x1="28.831" y1="68.904" x2="27.067" y2="69.203" stroke="#C9A84C" stroke-width="0.500" opacity="0.452" stroke-linecap="round"/>
  <line x1="27.067" y1="69.203" x2="25.361" y2="69.430" stroke="#C9A84C" stroke-width="0.492" opacity="0.445" stroke-linecap="round"/>
  <line x1="25.361" y1="69.430" x2="23.716" y2="69.585" stroke="#C9A84C" stroke-width="0.484" opacity="0.439" stroke-linecap="round"/>
  <line x1="23.716" y1="69.585" x2="22.139" y2="69.667" stroke="#C9A84C" stroke-width="0.476" opacity="0.432" stroke-linecap="round"/>
  <line x1="22.139" y1="69.667" x2="20.632" y2="69.676" stroke="#C9A84C" stroke-width="0.468" opacity="0.424" stroke-linecap="round"/>
  <line x1="20.632" y1="69.676" x2="19.200" y2="69.612" stroke="#C9A84C" stroke-width="0.459" opacity="0.416" stroke-linecap="round"/>
  <line x1="19.200" y1="69.612" x2="17.847" y2="69.475" stroke="#C9A84C" stroke-width="0.450" opacity="0.409" stroke-linecap="round"/>
  <line x1="17.847" y1="69.475" x2="16.577" y2="69.266" stroke="#C9A84C" stroke-width="0.441" opacity="0.400" stroke-linecap="round"/>
  <line x1="16.577" y1="69.266" x2="15.393" y2="68.984" stroke="#C9A84C" stroke-width="0.431" opacity="0.392" stroke-linecap="round"/>
  <line x1="15.393" y1="68.984" x2="14.298" y2="68.632" stroke="#C9A84C" stroke-width="0.421" opacity="0.383" stroke-linecap="round"/>
  <line x1="14.298" y1="68.632" x2="13.296" y2="68.209" stroke="#C9A84C" stroke-width="0.412" opacity="0.375" stroke-linecap="round"/>
  <line x1="13.296" y1="68.209" x2="12.388" y2="67.717" stroke="#C9A84C" stroke-width="0.401" opacity="0.366" stroke-linecap="round"/>
  <line x1="12.388" y1="67.717" x2="11.579" y2="67.157" stroke="#C9A84C" stroke-width="0.391" opacity="0.357" stroke-linecap="round"/>
  <line x1="11.579" y1="67.157" x2="10.869" y2="66.531" stroke="#C9A84C" stroke-width="0.381" opacity="0.348" stroke-linecap="round"/>
  <line x1="10.869" y1="66.531" x2="10.261" y2="65.841" stroke="#C9A84C" stroke-width="0.370" opacity="0.339" stroke-linecap="round"/>
  <line x1="10.261" y1="65.841" x2="9.756" y2="65.088" stroke="#C9A84C" stroke-width="0.360" opacity="0.330" stroke-linecap="round"/>
  <line x1="9.756" y1="65.088" x2="9.357" y2="64.275" stroke="#C9A84C" stroke-width="0.350" opacity="0.320" stroke-linecap="round"/>
  <line x1="9.357" y1="64.275" x2="9.063" y2="63.403" stroke="#C9A84C" stroke-width="0.339" opacity="0.311" stroke-linecap="round"/>
  <line x1="9.063" y1="63.403" x2="8.876" y2="62.475" stroke="#C9A84C" stroke-width="0.329" opacity="0.302" stroke-linecap="round"/>
  <line x1="8.876" y1="62.475" x2="8.796" y2="61.494" stroke="#C9A84C" stroke-width="0.318" opacity="0.293" stroke-linecap="round"/>
  <line x1="8.796" y1="61.494" x2="8.823" y2="60.462" stroke="#C9A84C" stroke-width="0.308" opacity="0.284" stroke-linecap="round"/>
  <line x1="8.823" y1="60.462" x2="8.958" y2="59.383" stroke="#C9A84C" stroke-width="0.298" opacity="0.275" stroke-linecap="round"/>
  <line x1="8.958" y1="59.383" x2="9.200" y2="58.259" stroke="#C9A84C" stroke-width="0.288" opacity="0.267" stroke-linecap="round"/>
  <line x1="9.200" y1="58.259" x2="9.548" y2="57.092" stroke="#C9A84C" stroke-width="0.278" opacity="0.258" stroke-linecap="round"/>
  <line x1="9.548" y1="57.092" x2="10.002" y2="55.887" stroke="#C9A84C" stroke-width="0.269" opacity="0.250" stroke-linecap="round"/>
  <line x1="10.002" y1="55.887" x2="10.560" y2="54.647" stroke="#C9A84C" stroke-width="0.260" opacity="0.241" stroke-linecap="round"/>
  <line x1="10.560" y1="54.647" x2="11.220" y2="53.375" stroke="#C9A84C" stroke-width="0.251" opacity="0.234" stroke-linecap="round"/>
  <line x1="11.220" y1="53.375" x2="11.982" y2="52.075" stroke="#C9A84C" stroke-width="0.242" opacity="0.226" stroke-linecap="round"/>
  <line x1="11.982" y1="52.075" x2="12.842" y2="50.750" stroke="#C9A84C" stroke-width="0.233" opacity="0.218" stroke-linecap="round"/>
  <line x1="12.842" y1="50.750" x2="13.798" y2="49.403" stroke="#C9A84C" stroke-width="0.225" opacity="0.211" stroke-linecap="round"/>
  <line x1="13.798" y1="49.403" x2="14.848" y2="48.039" stroke="#C9A84C" stroke-width="0.217" opacity="0.205" stroke-linecap="round"/>
  <line x1="14.848" y1="48.039" x2="15.989" y2="46.661" stroke="#C9A84C" stroke-width="0.210" opacity="0.198" stroke-linecap="round"/>
  <line x1="15.989" y1="46.661" x2="17.218" y2="45.273" stroke="#C9A84C" stroke-width="0.203" opacity="0.192" stroke-linecap="round"/>
  <line x1="17.218" y1="45.273" x2="18.531" y2="43.879" stroke="#C9A84C" stroke-width="0.196" opacity="0.186" stroke-linecap="round"/>
  <line x1="18.531" y1="43.879" x2="19.925" y2="42.483" stroke="#C9A84C" stroke-width="0.190" opacity="0.181" stroke-linecap="round"/>
  <line x1="19.925" y1="42.483" x2="21.396" y2="41.088" stroke="#C9A84C" stroke-width="0.185" opacity="0.176" stroke-linecap="round"/>
  <line x1="21.396" y1="41.088" x2="22.939" y2="39.698" stroke="#C9A84C" stroke-width="0.179" opacity="0.171" stroke-linecap="round"/>
  <line x1="22.939" y1="39.698" x2="24.552" y2="38.318" stroke="#C9A84C" stroke-width="0.175" opacity="0.167" stroke-linecap="round"/>
  <line x1="24.552" y1="38.318" x2="26.229" y2="36.950" stroke="#C9A84C" stroke-width="0.170" opacity="0.163" stroke-linecap="round"/>
  <line x1="26.229" y1="36.950" x2="27.965" y2="35.599" stroke="#C9A84C" stroke-width="0.167" opacity="0.160" stroke-linecap="round"/>
  <line x1="27.965" y1="35.599" x2="29.756" y2="34.268" stroke="#C9A84C" stroke-width="0.163" opacity="0.157" stroke-linecap="round"/>
  <line x1="29.756" y1="34.268" x2="31.597" y2="32.961" stroke="#C9A84C" stroke-width="0.161" opacity="0.155" stroke-linecap="round"/>
  <line x1="31.597" y1="32.961" x2="33.484" y2="31.681" stroke="#C9A84C" stroke-width="0.159" opacity="0.153" stroke-linecap="round"/>
  <line x1="33.484" y1="31.681" x2="35.410" y2="30.433" stroke="#C9A84C" stroke-width="0.157" opacity="0.151" stroke-linecap="round"/>
  <line x1="35.410" y1="30.433" x2="37.370" y2="29.219" stroke="#C9A84C" stroke-width="0.156" opacity="0.151" stroke-linecap="round"/>
  <line x1="37.370" y1="29.219" x2="39.360" y2="28.043" stroke="#C9A84C" stroke-width="0.155" opacity="0.150" stroke-linecap="round"/>
  <line x1="39.360" y1="28.043" x2="41.373" y2="26.908" stroke="#C9A84C" stroke-width="0.155" opacity="0.150" stroke-linecap="round"/>
  <line x1="41.373" y1="26.908" x2="43.405" y2="25.817" stroke="#C9A84C" stroke-width="0.156" opacity="0.151" stroke-linecap="round"/>
  <line x1="43.405" y1="25.817" x2="45.449" y2="24.773" stroke="#C9A84C" stroke-width="0.157" opacity="0.151" stroke-linecap="round"/>
  <line x1="45.449" y1="24.773" x2="47.500" y2="23.779" stroke="#C9A84C" stroke-width="0.159" opacity="0.153" stroke-linecap="round"/>
  <line x1="47.500" y1="23.779" x2="49.553" y2="22.838" stroke="#C9A84C" stroke-width="0.161" opacity="0.155" stroke-linecap="round"/>
  <line x1="49.553" y1="22.838" x2="51.601" y2="21.952" stroke="#C9A84C" stroke-width="0.163" opacity="0.157" stroke-linecap="round"/>
  <line x1="51.601" y1="21.952" x2="53.639" y2="21.124" stroke="#C9A84C" stroke-width="0.167" opacity="0.160" stroke-linecap="round"/>
  <line x1="53.639" y1="21.124" x2="55.662" y2="20.356" stroke="#C9A84C" stroke-width="0.170" opacity="0.163" stroke-linecap="round"/>
  <line x1="55.662" y1="20.356" x2="57.664" y2="19.650" stroke="#C9A84C" stroke-width="0.175" opacity="0.167" stroke-linecap="round"/>
  <line x1="57.664" y1="19.650" x2="59.639" y2="19.008" stroke="#C9A84C" stroke-width="0.179" opacity="0.171" stroke-linecap="round"/>
  <line x1="59.639" y1="19.008" x2="61.583" y2="18.432" stroke="#C9A84C" stroke-width="0.185" opacity="0.176" stroke-linecap="round"/>
  <line x1="61.583" y1="18.432" x2="63.489" y2="17.923" stroke="#C9A84C" stroke-width="0.190" opacity="0.181" stroke-linecap="round"/>
  <line x1="63.489" y1="17.923" x2="65.353" y2="17.483" stroke="#C9A84C" stroke-width="0.196" opacity="0.186" stroke-linecap="round"/>
  <line x1="65.353" y1="17.483" x2="67.169" y2="17.112" stroke="#C9A84C" stroke-width="0.203" opacity="0.192" stroke-linecap="round"/>
  <line x1="67.169" y1="17.112" x2="68.933" y2="16.813" stroke="#C9A84C" stroke-width="0.210" opacity="0.198" stroke-linecap="round"/>
  <line x1="68.933" y1="16.813" x2="70.639" y2="16.586" stroke="#C9A84C" stroke-width="0.217" opacity="0.205" stroke-linecap="round"/>
  <line x1="70.639" y1="16.586" x2="72.284" y2="16.431" stroke="#C9A84C" stroke-width="0.225" opacity="0.211" stroke-linecap="round"/>
  <line x1="72.284" y1="16.431" x2="73.861" y2="16.349" stroke="#C9A84C" stroke-width="0.233" opacity="0.218" stroke-linecap="round"/>
  <line x1="73.861" y1="16.349" x2="75.368" y2="16.340" stroke="#C9A84C" stroke-width="0.242" opacity="0.226" stroke-linecap="round"/>
  <line x1="75.368" y1="16.340" x2="76.800" y2="16.404" stroke="#C9A84C" stroke-width="0.251" opacity="0.234" stroke-linecap="round"/>
  <line x1="76.800" y1="16.404" x2="78.153" y2="16.541" stroke="#C9A84C" stroke-width="0.260" opacity="0.241" stroke-linecap="round"/>
  <line x1="78.153" y1="16.541" x2="79.423" y2="16.750" stroke="#C9A84C" stroke-width="0.269" opacity="0.250" stroke-linecap="round"/>
  <line x1="79.423" y1="16.750" x2="80.607" y2="17.032" stroke="#C9A84C" stroke-width="0.278" opacity="0.258" stroke-linecap="round"/>
  <line x1="80.607" y1="17.032" x2="81.702" y2="17.384" stroke="#C9A84C" stroke-width="0.288" opacity="0.267" stroke-linecap="round"/>
  <line x1="81.702" y1="17.384" x2="82.704" y2="17.807" stroke="#C9A84C" stroke-width="0.298" opacity="0.275" stroke-linecap="round"/>
  <line x1="82.704" y1="17.807" x2="83.612" y2="18.299" stroke="#C9A84C" stroke-width="0.308" opacity="0.284" stroke-linecap="round"/>
  <line x1="83.612" y1="18.299" x2="84.421" y2="18.859" stroke="#C9A84C" stroke-width="0.318" opacity="0.293" stroke-linecap="round"/>
  <line x1="84.421" y1="18.859" x2="85.131" y2="19.485" stroke="#C9A84C" stroke-width="0.329" opacity="0.302" stroke-linecap="round"/>
  <line x1="85.131" y1="19.485" x2="85.739" y2="20.175" stroke="#C9A84C" stroke-width="0.339" opacity="0.311" stroke-linecap="round"/>
  <line x1="85.739" y1="20.175" x2="86.244" y2="20.928" stroke="#C9A84C" stroke-width="0.350" opacity="0.320" stroke-linecap="round"/>
  <polygon points="48.000,39.840 49.152,46.848 50.172,45.828 49.152,49.152 56.160,48.000 49.152,49.152 50.172,50.172 46.848,49.152 48.000,56.160 46.848,49.152 45.828,50.172 46.848,46.848 39.840,48.000 46.848,46.848 45.828,45.828 49.152,46.848" fill="#C9A84C" opacity="1"/>
</svg>