<?xml version="1.0" encoding="UTF-8"?>
<svg width="500" height="500" viewBox="0 0 500 500" xmlns="http://www.w3.org/2000/svg">
  <line x1="449.19" y1="161.00" x2="451.27" y2="165.24" stroke="#C9A84C" stroke-width="3.750" opacity="0.659" stroke-linecap="round"/>
  <line x1="451.27" y1="165.24" x2="452.80" y2="169.78" stroke="#C9A84C" stroke-width="3.859" opacity="0.677" stroke-linecap="round"/>
  <line x1="452.80" y1="169.78" x2="453.77" y2="174.61" stroke="#C9A84C" stroke-width="3.967" opacity="0.696" stroke-linecap="round"/>
  <line x1="453.77" y1="174.61" x2="454.19" y2="179.72" stroke="#C9A84C" stroke-width="4.075" opacity="0.714" stroke-linecap="round"/>
  <line x1="454.19" y1="179.72" x2="454.05" y2="185.09" stroke="#C9A84C" stroke-width="4.181" opacity="0.732" stroke-linecap="round"/>
  <line x1="454.05" y1="185.09" x2="453.34" y2="190.71" stroke="#C9A84C" stroke-width="4.286" opacity="0.749" stroke-linecap="round"/>
  <line x1="453.34" y1="190.71" x2="452.08" y2="196.57" stroke="#C9A84C" stroke-width="4.390" opacity="0.767" stroke-linecap="round"/>
  <line x1="452.08" y1="196.57" x2="450.27" y2="202.64" stroke="#C9A84C" stroke-width="4.492" opacity="0.784" stroke-linecap="round"/>
  <line x1="450.27" y1="202.64" x2="447.91" y2="208.92" stroke="#C9A84C" stroke-width="4.591" opacity="0.801" stroke-linecap="round"/>
  <line x1="447.91" y1="208.92" x2="445.00" y2="215.38" stroke="#C9A84C" stroke-width="4.688" opacity="0.817" stroke-linecap="round"/>
  <line x1="445.00" y1="215.38" x2="441.56" y2="222.00" stroke="#C9A84C" stroke-width="4.782" opacity="0.833" stroke-linecap="round"/>
  <line x1="441.56" y1="222.00" x2="437.60" y2="228.78" stroke="#C9A84C" stroke-width="4.874" opacity="0.848" stroke-linecap="round"/>
  <line x1="437.60" y1="228.78" x2="433.12" y2="235.68" stroke="#C9A84C" stroke-width="4.962" opacity="0.863" stroke-linecap="round"/>
  <line x1="433.12" y1="235.68" x2="428.13" y2="242.69" stroke="#C9A84C" stroke-width="5.046" opacity="0.877" stroke-linecap="round"/>
  <line x1="428.13" y1="242.69" x2="422.67" y2="249.80" stroke="#C9A84C" stroke-width="5.127" opacity="0.891" stroke-linecap="round"/>
  <line x1="422.67" y1="249.80" x2="416.72" y2="256.97" stroke="#C9A84C" stroke-width="5.204" opacity="0.904" stroke-linecap="round"/>
  <line x1="416.72" y1="256.97" x2="410.32" y2="264.20" stroke="#C9A84C" stroke-width="5.277" opacity="0.916" stroke-linecap="round"/>
  <line x1="410.32" y1="264.20" x2="403.48" y2="271.46" stroke="#C9A84C" stroke-width="5.345" opacity="0.928" stroke-linecap="round"/>
  <line x1="403.48" y1="271.46" x2="396.22" y2="278.73" stroke="#C9A84C" stroke-width="5.409" opacity="0.938" stroke-linecap="round"/>
  <line x1="396.22" y1="278.73" x2="388.56" y2="286.00" stroke="#C9A84C" stroke-width="5.469" opacity="0.948" stroke-linecap="round"/>
  <line x1="388.56" y1="286.00" x2="380.52" y2="293.24" stroke="#C9A84C" stroke-width="5.523" opacity="0.958" stroke-linecap="round"/>
  <line x1="380.52" y1="293.24" x2="372.13" y2="300.43" stroke="#C9A84C" stroke-width="5.572" opacity="0.966" stroke-linecap="round"/>
  <line x1="372.13" y1="300.43" x2="363.39" y2="307.55" stroke="#C9A84C" stroke-width="5.617" opacity="0.973" stroke-linecap="round"/>
  <line x1="363.39" y1="307.55" x2="354.35" y2="314.59" stroke="#C9A84C" stroke-width="5.656" opacity="0.980" stroke-linecap="round"/>
  <line x1="354.35" y1="314.59" x2="345.02" y2="321.52" stroke="#C9A84C" stroke-width="5.689" opacity="0.986" stroke-linecap="round"/>
  <line x1="345.02" y1="321.52" x2="335.43" y2="328.33" stroke="#C9A84C" stroke-width="5.718" opacity="0.990" stroke-linecap="round"/>
  <line x1="335.43" y1="328.33" x2="325.61" y2="334.99" stroke="#C9A84C" stroke-width="5.740" opacity="0.994" stroke-linecap="round"/>
  <line x1="325.61" y1="334.99" x2="315.57" y2="341.49" stroke="#C9A84C" stroke-width="5.757" opacity="0.997" stroke-linecap="round"/>
  <line x1="315.57" y1="341.49" x2="305.36" y2="347.82" stroke="#C9A84C" stroke-width="5.769" opacity="0.999" stroke-linecap="round"/>
  <line x1="305.36" y1="347.82" x2="295.00" y2="353.94" stroke="#C9A84C" stroke-width="5.774" opacity="1.000" stroke-linecap="round"/>
  <line x1="295.00" y1="353.94" x2="284.51" y2="359.85" stroke="#C9A84C" stroke-width="5.774" opacity="1.000" stroke-linecap="round"/>
  <line x1="284.51" y1="359.85" x2="273.93" y2="365.54" stroke="#C9A84C" stroke-width="5.769" opacity="0.999" stroke-linecap="round"/>
  <line x1="273.93" y1="365.54" x2="263.29" y2="370.97" stroke="#C9A84C" stroke-width="5.757" opacity="0.997" stroke-linecap="round"/>
  <line x1="263.29" y1="370.97" x2="252.60" y2="376.15" stroke="#C9A84C" stroke-width="5.740" opacity="0.994" stroke-linecap="round"/>
  <line x1="252.60" y1="376.15" x2="241.91" y2="381.05" stroke="#C9A84C" stroke-width="5.718" opacity="0.990" stroke-linecap="round"/>
  <line x1="241.91" y1="381.05" x2="231.25" y2="385.66" stroke="#C9A84C" stroke-width="5.689" opacity="0.986" stroke-linecap="round"/>
  <line x1="231.25" y1="385.66" x2="220.63" y2="389.98" stroke="#C9A84C" stroke-width="5.656" opacity="0.980" stroke-linecap="round"/>
  <line x1="220.63" y1="389.98" x2="210.09" y2="393.98" stroke="#C9A84C" stroke-width="5.617" opacity="0.973" stroke-linecap="round"/>
  <line x1="210.09" y1="393.98" x2="199.67" y2="397.66" stroke="#C9A84C" stroke-width="5.572" opacity="0.966" stroke-linecap="round"/>
  <line x1="199.67" y1="397.66" x2="189.38" y2="401.00" stroke="#C9A84C" stroke-width="5.523" opacity="0.958" stroke-linecap="round"/>
  <line x1="189.38" y1="401.00" x2="179.26" y2="404.00" stroke="#C9A84C" stroke-width="5.469" opacity="0.948" stroke-linecap="round"/>
  <line x1="179.26" y1="404.00" x2="169.33" y2="406.65" stroke="#C9A84C" stroke-width="5.409" opacity="0.938" stroke-linecap="round"/>
  <line x1="169.33" y1="406.65" x2="159.62" y2="408.94" stroke="#C9A84C" stroke-width="5.345" opacity="0.928" stroke-linecap="round"/>
  <line x1="159.62" y1="408.94" x2="150.16" y2="410.87" stroke="#C9A84C" stroke-width="5.277" opacity="0.916" stroke-linecap="round"/>
  <line x1="150.16" y1="410.87" x2="140.97" y2="412.43" stroke="#C9A84C" stroke-width="5.204" opacity="0.904" stroke-linecap="round"/>
  <line x1="140.97" y1="412.43" x2="132.09" y2="413.62" stroke="#C9A84C" stroke-width="5.127" opacity="0.891" stroke-linecap="round"/>
  <line x1="132.09" y1="413.62" x2="123.52" y2="414.42" stroke="#C9A84C" stroke-width="5.046" opacity="0.877" stroke-linecap="round"/>
  <line x1="123.52" y1="414.42" x2="115.31" y2="414.85" stroke="#C9A84C" stroke-width="4.962" opacity="0.863" stroke-linecap="round"/>
  <line x1="115.31" y1="414.85" x2="107.46" y2="414.90" stroke="#C9A84C" stroke-width="4.874" opacity="0.848" stroke-linecap="round"/>
  <line x1="107.46" y1="414.90" x2="100.00" y2="414.56" stroke="#C9A84C" stroke-width="4.782" opacity="0.833" stroke-linecap="round"/>
  <line x1="100.00" y1="414.56" x2="92.95" y2="413.85" stroke="#C9A84C" stroke-width="4.688" opacity="0.817" stroke-linecap="round"/>
  <line x1="92.95" y1="413.85" x2="86.34" y2="412.76" stroke="#C9A84C" stroke-width="4.591" opacity="0.801" stroke-linecap="round"/>
  <line x1="86.34" y1="412.76" x2="80.17" y2="411.29" stroke="#C9A84C" stroke-width="4.492" opacity="0.784" stroke-linecap="round"/>
  <line x1="80.17" y1="411.29" x2="74.47" y2="409.46" stroke="#C9A84C" stroke-width="4.390" opacity="0.767" stroke-linecap="round"/>
  <line x1="74.47" y1="409.46" x2="69.25" y2="407.25" stroke="#C9A84C" stroke-width="4.286" opacity="0.749" stroke-linecap="round"/>
  <line x1="69.25" y1="407.25" x2="64.52" y2="404.69" stroke="#C9A84C" stroke-width="4.181" opacity="0.732" stroke-linecap="round"/>
  <line x1="64.52" y1="404.69" x2="60.31" y2="401.78" stroke="#C9A84C" stroke-width="4.075" opacity="0.714" stroke-linecap="round"/>
  <line x1="60.31" y1="401.78" x2="56.61" y2="398.52" stroke="#C9A84C" stroke-width="3.967" opacity="0.696" stroke-linecap="round"/>
  <line x1="56.61" y1="398.52" x2="53.44" y2="394.92" stroke="#C9A84C" stroke-width="3.859" opacity="0.677" stroke-linecap="round"/>
  <line x1="53.44" y1="394.92" x2="50.81" y2="391.00" stroke="#C9A84C" stroke-width="3.750" opacity="0.659" stroke-linecap="round"/>
  <line x1="50.81" y1="391.00" x2="48.73" y2="386.76" stroke="#C9A84C" stroke-width="3.642" opacity="0.641" stroke-linecap="round"/>
  <line x1="48.73" y1="386.76" x2="47.20" y2="382.22" stroke="#C9A84C" stroke-width="3.533" opacity="0.623" stroke-linecap="round"/>
  <line x1="47.20" y1="382.22" x2="46.23" y2="377.39" stroke="#C9A84C" stroke-width="3.425" opacity="0.604" stroke-linecap="round"/>
  <line x1="46.23" y1="377.39" x2="45.81" y2="372.28" stroke="#C9A84C" stroke-width="3.317" opacity="0.586" stroke-linecap="round"/>
  <line x1="45.81" y1="372.28" x2="45.95" y2="366.91" stroke="#C9A84C" stroke-width="3.211" opacity="0.568" stroke-linecap="round"/>
  <line x1="45.95" y1="366.91" x2="46.66" y2="361.29" stroke="#C9A84C" stroke-width="3.106" opacity="0.551" stroke-linecap="round"/>
  <line x1="46.66" y1="361.29" x2="47.92" y2="355.43" stroke="#C9A84C" stroke-width="3.002" opacity="0.533" stroke-linecap="round"/>
  <line x1="47.92" y1="355.43" x2="49.73" y2="349.36" stroke="#C9A84C" stroke-width="2.900" opacity="0.516" stroke-linecap="round"/>
  <line x1="49.73" y1="349.36" x2="52.09" y2="343.08" stroke="#C9A84C" stroke-width="2.801" opacity="0.499" stroke-linecap="round"/>
  <line x1="52.09" y1="343.08" x2="55.00" y2="336.62" stroke="#C9A84C" stroke-width="2.704" opacity="0.483" stroke-linecap="round"/>
  <line x1="55.00" y1="336.62" x2="58.44" y2="330.00" stroke="#C9A84C" stroke-width="2.610" opacity="0.467" stroke-linecap="round"/>
  <line x1="58.44" y1="330.00" x2="62.40" y2="323.22" stroke="#C9A84C" stroke-width="2.518" opacity="0.452" stroke-linecap="round"/>
  <line x1="62.40" y1="323.22" x2="66.88" y2="316.32" stroke="#C9A84C" stroke-width="2.430" opacity="0.437" stroke-linecap="round"/>
  <line x1="66.88" y1="316.32" x2="71.87" y2="309.31" stroke="#C9A84C" stroke-width="2.346" opacity="0.423" stroke-linecap="round"/>
  <line x1="71.87" y1="309.31" x2="77.33" y2="302.20" stroke="#C9A84C" stroke-width="2.265" opacity="0.409" stroke-linecap="round"/>
  <line x1="77.33" y1="302.20" x2="83.28" y2="295.03" stroke="#C9A84C" stroke-width="2.188" opacity="0.396" stroke-linecap="round"/>
  <line x1="83.28" y1="295.03" x2="89.68" y2="287.80" stroke="#C9A84C" stroke-width="2.115" opacity="0.384" stroke-linecap="round"/>
  <line x1="89.68" y1="287.80" x2="96.52" y2="280.54" stroke="#C9A84C" stroke-width="2.047" opacity="0.372" stroke-linecap="round"/>
  <line x1="96.52" y1="280.54" x2="103.78" y2="273.27" stroke="#C9A84C" stroke-width="1.983" opacity="0.362" stroke-linecap="round"/>
  <line x1="103.78" y1="273.27" x2="111.44" y2="266.00" stroke="#C9A84C" stroke-width="1.923" opacity="0.352" stroke-linecap="round"/>
  <line x1="111.44" y1="266.00" x2="119.48" y2="258.76" stroke="#C9A84C" stroke-width="1.869" opacity="0.342" stroke-linecap="round"/>
  <line x1="119.48" y1="258.76" x2="127.87" y2="251.57" stroke="#C9A84C" stroke-width="1.820" opacity="0.334" stroke-linecap="round"/>
  <line x1="127.87" y1="251.57" x2="136.61" y2="244.45" stroke="#C9A84C" stroke-width="1.775" opacity="0.327" stroke-linecap="round"/>
  <line x1="136.61" y1="244.45" x2="145.65" y2="237.41" stroke="#C9A84C" stroke-width="1.736" opacity="0.320" stroke-linecap="round"/>
  <line x1="145.65" y1="237.41" x2="154.98" y2="230.48" stroke="#C9A84C" stroke-width="1.703" opacity="0.314" stroke-linecap="round"/>
  <line x1="154.98" y1="230.48" x2="164.57" y2="223.67" stroke="#C9A84C" stroke-width="1.674" opacity="0.310" stroke-linecap="round"/>
  <line x1="164.57" y1="223.67" x2="174.39" y2="217.01" stroke="#C9A84C" stroke-width="1.652" opacity="0.306" stroke-linecap="round"/>
  <line x1="174.39" y1="217.01" x2="184.43" y2="210.51" stroke="#C9A84C" stroke-width="1.635" opacity="0.303" stroke-linecap="round"/>
  <line x1="184.43" y1="210.51" x2="194.64" y2="204.18" stroke="#C9A84C" stroke-width="1.623" opacity="0.301" stroke-linecap="round"/>
  <line x1="194.64" y1="204.18" x2="205.00" y2="198.06" stroke="#C9A84C" stroke-width="1.618" opacity="0.300" stroke-linecap="round"/>
  <line x1="205.00" y1="198.06" x2="215.49" y2="192.15" stroke="#C9A84C" stroke-width="1.618" opacity="0.300" stroke-linecap="round"/>
  <line x1="215.49" y1="192.15" x2="226.07" y2="186.46" stroke="#C9A84C" stroke-width="1.623" opacity="0.301" stroke-linecap="round"/>
  <line x1="226.07" y1="186.46" x2="236.71" y2="181.03" stroke="#C9A84C" stroke-width="1.635" opacity="0.303" stroke-linecap="round"/>
  <line x1="236.71" y1="181.03" x2="247.40" y2="175.85" stroke="#C9A84C" stroke-width="1.652" opacity="0.306" stroke-linecap="round"/>
  <line x1="247.40" y1="175.85" x2="258.09" y2="170.95" stroke="#C9A84C" stroke-width="1.674" opacity="0.310" stroke-linecap="round"/>
  <line x1="258.09" y1="170.95" x2="268.75" y2="166.34" stroke="#C9A84C" stroke-width="1.703" opacity="0.314" stroke-linecap="round"/>
  <line x1="268.75" y1="166.34" x2="279.37" y2="162.02" stroke="#C9A84C" stroke-width="1.736" opacity="0.320" stroke-linecap="round"/>
  <line x1="279.37" y1="162.02" x2="289.91" y2="158.02" stroke="#C9A84C" stroke-width="1.775" opacity="0.327" stroke-linecap="round"/>
  <line x1="289.91" y1="158.02" x2="300.33" y2="154.34" stroke="#C9A84C" stroke-width="1.820" opacity="0.334" stroke-linecap="round"/>
  <line x1="300.33" y1="154.34" x2="310.62" y2="151.00" stroke="#C9A84C" stroke-width="1.869" opacity="0.342" stroke-linecap="round"/>
  <line x1="310.62" y1="151.00" x2="320.74" y2="148.00" stroke="#C9A84C" stroke-width="1.923" opacity="0.352" stroke-linecap="round"/>
  <line x1="320.74" y1="148.00" x2="330.67" y2="145.35" stroke="#C9A84C" stroke-width="1.983" opacity="0.362" stroke-linecap="round"/>
  <line x1="330.67" y1="145.35" x2="340.38" y2="143.06" stroke="#C9A84C" stroke-width="2.047" opacity="0.372" stroke-linecap="round"/>
  <line x1="340.38" y1="143.06" x2="349.84" y2="141.13" stroke="#C9A84C" stroke-width="2.115" opacity="0.384" stroke-linecap="round"/>
  <line x1="349.84" y1="141.13" x2="359.03" y2="139.57" stroke="#C9A84C" stroke-width="2.188" opacity="0.396" stroke-linecap="round"/>
  <line x1="359.03" y1="139.57" x2="367.91" y2="138.38" stroke="#C9A84C" stroke-width="2.265" opacity="0.409" stroke-linecap="round"/>
  <line x1="367.91" y1="138.38" x2="376.48" y2="137.58" stroke="#C9A84C" stroke-width="2.346" opacity="0.423" stroke-linecap="round"/>
  <line x1="376.48" y1="137.58" x2="384.69" y2="137.15" stroke="#C9A84C" stroke-width="2.430" opacity="0.437" stroke-linecap="round"/>
  <line x1="384.69" y1="137.15" x2="392.54" y2="137.10" stroke="#C9A84C" stroke-width="2.518" opacity="0.452" stroke-linecap="round"/>
  <line x1="392.54" y1="137.10" x2="400.00" y2="137.44" stroke="#C9A84C" stroke-width="2.610" opacity="0.467" stroke-linecap="round"/>
  <line x1="400.00" y1="137.44" x2="407.05" y2="138.15" stroke="#C9A84C" stroke-width="2.704" opacity="0.483" stroke-linecap="round"/>
  <line x1="407.05" y1="138.15" x2="413.66" y2="139.24" stroke="#C9A84C" stroke-width="2.801" opacity="0.499" stroke-linecap="round"/>
  <line x1="413.66" y1="139.24" x2="419.83" y2="140.71" stroke="#C9A84C" stroke-width="2.900" opacity="0.516" stroke-linecap="round"/>
  <line x1="419.83" y1="140.71" x2="425.53" y2="142.54" stroke="#C9A84C" stroke-width="3.002" opacity="0.533" stroke-linecap="round"/>
  <line x1="425.53" y1="142.54" x2="430.75" y2="144.75" stroke="#C9A84C" stroke-width="3.106" opacity="0.551" stroke-linecap="round"/>
  <line x1="430.75" y1="144.75" x2="435.48" y2="147.31" stroke="#C9A84C" stroke-width="3.211" opacity="0.568" stroke-linecap="round"/>
  <line x1="435.48" y1="147.31" x2="439.69" y2="150.22" stroke="#C9A84C" stroke-width="3.317" opacity="0.586" stroke-linecap="round"/>
  <line x1="439.69" y1="150.22" x2="443.39" y2="153.48" stroke="#C9A84C" stroke-width="3.425" opacity="0.604" stroke-linecap="round"/>
  <line x1="443.39" y1="153.48" x2="446.56" y2="157.08" stroke="#C9A84C" stroke-width="3.533" opacity="0.623" stroke-linecap="round"/>
  <line x1="446.56" y1="157.08" x2="449.19" y2="161.00" stroke="#C9A84C" stroke-width="3.642" opacity="0.641" stroke-linecap="round"/>
  <line x1="449.19" y1="135.00" x2="451.27" y2="139.24" stroke="#C9A84C" stroke-width="2.813" opacity="0.494" stroke-linecap="round"/>
  <line x1="451.27" y1="139.24" x2="452.80" y2="143.78" stroke="#C9A84C" stroke-width="2.894" opacity="0.508" stroke-linecap="round"/>
  <line x1="452.80" y1="143.78" x2="453.77" y2="148.61" stroke="#C9A84C" stroke-width="2.976" opacity="0.522" stroke-linecap="round"/>
  <line x1="453.77" y1="148.61" x2="454.19" y2="153.72" stroke="#C9A84C" stroke-width="3.056" opacity="0.535" stroke-linecap="round"/>
  <line x1="454.19" y1="153.72" x2="454.05" y2="159.09" stroke="#C9A84C" stroke-width="3.136" opacity="0.549" stroke-linecap="round"/>
  <line x1="454.05" y1="159.09" x2="453.34" y2="164.71" stroke="#C9A84C" stroke-width="3.215" opacity="0.562" stroke-linecap="round"/>
  <line x1="453.34" y1="164.71" x2="452.08" y2="170.57" stroke="#C9A84C" stroke-width="3.292" opacity="0.575" stroke-linecap="round"/>
  <line x1="452.08" y1="170.57" x2="450.27" y2="176.64" stroke="#C9A84C" stroke-width="3.369" opacity="0.588" stroke-linecap="round"/>
  <line x1="450.27" y1="176.64" x2="447.91" y2="182.92" stroke="#C9A84C" stroke-width="3.443" opacity="0.601" stroke-linecap="round"/>
  <line x1="447.91" y1="182.92" x2="445.00" y2="189.38" stroke="#C9A84C" stroke-width="3.516" opacity="0.613" stroke-linecap="round"/>
  <line x1="445.00" y1="189.38" x2="441.56" y2="196.00" stroke="#C9A84C" stroke-width="3.587" opacity="0.625" stroke-linecap="round"/>
  <line x1="441.56" y1="196.00" x2="437.60" y2="202.78" stroke="#C9A84C" stroke-width="3.655" opacity="0.636" stroke-linecap="round"/>
  <line x1="437.60" y1="202.78" x2="433.12" y2="209.68" stroke="#C9A84C" stroke-width="3.721" opacity="0.647" stroke-linecap="round"/>
  <line x1="433.12" y1="209.68" x2="428.13" y2="216.69" stroke="#C9A84C" stroke-width="3.785" opacity="0.658" stroke-linecap="round"/>
  <line x1="428.13" y1="216.69" x2="422.67" y2="223.80" stroke="#C9A84C" stroke-width="3.845" opacity="0.668" stroke-linecap="round"/>
  <line x1="422.67" y1="223.80" x2="416.72" y2="230.97" stroke="#C9A84C" stroke-width="3.903" opacity="0.678" stroke-linecap="round"/>
  <line x1="416.72" y1="230.97" x2="410.32" y2="238.20" stroke="#C9A84C" stroke-width="3.958" opacity="0.687" stroke-linecap="round"/>
  <line x1="410.32" y1="238.20" x2="403.48" y2="245.46" stroke="#C9A84C" stroke-width="4.009" opacity="0.696" stroke-linecap="round"/>
  <line x1="403.48" y1="245.46" x2="396.22" y2="252.73" stroke="#C9A84C" stroke-width="4.057" opacity="0.704" stroke-linecap="round"/>
  <line x1="396.22" y1="252.73" x2="388.56" y2="260.00" stroke="#C9A84C" stroke-width="4.101" opacity="0.711" stroke-linecap="round"/>
  <line x1="388.56" y1="260.00" x2="380.52" y2="267.24" stroke="#C9A84C" stroke-width="4.142" opacity="0.718" stroke-linecap="round"/>
  <line x1="380.52" y1="267.24" x2="372.13" y2="274.43" stroke="#C9A84C" stroke-width="4.179" opacity="0.724" stroke-linecap="round"/>
  <line x1="372.13" y1="274.43" x2="363.39" y2="281.55" stroke="#C9A84C" stroke-width="4.213" opacity="0.730" stroke-linecap="round"/>
  <line x1="363.39" y1="281.55" x2="354.35" y2="288.59" stroke="#C9A84C" stroke-width="4.242" opacity="0.735" stroke-linecap="round"/>
  <line x1="354.35" y1="288.59" x2="345.02" y2="295.52" stroke="#C9A84C" stroke-width="4.267" opacity="0.739" stroke-linecap="round"/>
  <line x1="345.02" y1="295.52" x2="335.43" y2="302.33" stroke="#C9A84C" stroke-width="4.288" opacity="0.743" stroke-linecap="round"/>
  <line x1="335.43" y1="302.33" x2="325.61" y2="308.99" stroke="#C9A84C" stroke-width="4.305" opacity="0.746" stroke-linecap="round"/>
  <line x1="325.61" y1="308.99" x2="315.57" y2="315.49" stroke="#C9A84C" stroke-width="4.318" opacity="0.748" stroke-linecap="round"/>
  <line x1="315.57" y1="315.49" x2="305.36" y2="321.82" stroke="#C9A84C" stroke-width="4.326" opacity="0.749" stroke-linecap="round"/>
  <line x1="305.36" y1="321.82" x2="295.00" y2="327.94" stroke="#C9A84C" stroke-width="4.331" opacity="0.750" stroke-linecap="round"/>
  <line x1="295.00" y1="327.94" x2="284.51" y2="333.85" stroke="#C9A84C" stroke-width="4.331" opacity="0.750" stroke-linecap="round"/>
  <line x1="284.51" y1="333.85" x2="273.93" y2="339.54" stroke="#C9A84C" stroke-width="4.326" opacity="0.749" stroke-linecap="round"/>
  <line x1="273.93" y1="339.54" x2="263.29" y2="344.97" stroke="#C9A84C" stroke-width="4.318" opacity="0.748" stroke-linecap="round"/>
  <line x1="263.29" y1="344.97" x2="252.60" y2="350.15" stroke="#C9A84C" stroke-width="4.305" opacity="0.746" stroke-linecap="round"/>
  <line x1="252.60" y1="350.15" x2="241.91" y2="355.05" stroke="#C9A84C" stroke-width="4.288" opacity="0.743" stroke-linecap="round"/>
  <line x1="241.91" y1="355.05" x2="231.25" y2="359.66" stroke="#C9A84C" stroke-width="4.267" opacity="0.739" stroke-linecap="round"/>
  <line x1="231.25" y1="359.66" x2="220.63" y2="363.98" stroke="#C9A84C" stroke-width="4.242" opacity="0.735" stroke-linecap="round"/>
  <line x1="220.63" y1="363.98" x2="210.09" y2="367.98" stroke="#C9A84C" stroke-width="4.213" opacity="0.730" stroke-linecap="round"/>
  <line x1="210.09" y1="367.98" x2="199.67" y2="371.66" stroke="#C9A84C" stroke-width="4.179" opacity="0.724" stroke-linecap="round"/>
  <line x1="199.67" y1="371.66" x2="189.38" y2="375.00" stroke="#C9A84C" stroke-width="4.142" opacity="0.718" stroke-linecap="round"/>
  <line x1="189.38" y1="375.00" x2="179.26" y2="378.00" stroke="#C9A84C" stroke-width="4.101" opacity="0.711" stroke-linecap="round"/>
  <line x1="179.26" y1="378.00" x2="169.33" y2="380.65" stroke="#C9A84C" stroke-width="4.057" opacity="0.704" stroke-linecap="round"/>
  <line x1="169.33" y1="380.65" x2="159.62" y2="382.94" stroke="#C9A84C" stroke-width="4.009" opacity="0.696" stroke-linecap="round"/>
  <line x1="159.62" y1="382.94" x2="150.16" y2="384.87" stroke="#C9A84C" stroke-width="3.958" opacity="0.687" stroke-linecap="round"/>
  <line x1="150.16" y1="384.87" x2="140.97" y2="386.43" stroke="#C9A84C" stroke-width="3.903" opacity="0.678" stroke-linecap="round"/>
  <line x1="140.97" y1="386.43" x2="132.09" y2="387.62" stroke="#C9A84C" stroke-width="3.845" opacity="0.668" stroke-linecap="round"/>
  <line x1="132.09" y1="387.62" x2="123.52" y2="388.42" stroke="#C9A84C" stroke-width="3.785" opacity="0.658" stroke-linecap="round"/>
  <line x1="123.52" y1="388.42" x2="115.31" y2="388.85" stroke="#C9A84C" stroke-width="3.721" opacity="0.647" stroke-linecap="round"/>
  <line x1="115.31" y1="388.85" x2="107.46" y2="388.90" stroke="#C9A84C" stroke-width="3.655" opacity="0.636" stroke-linecap="round"/>
  <line x1="107.46" y1="388.90" x2="100.00" y2="388.56" stroke="#C9A84C" stroke-width="3.587" opacity="0.625" stroke-linecap="round"/>
  <line x1="100.00" y1="388.56" x2="92.95" y2="387.85" stroke="#C9A84C" stroke-width="3.516" opacity="0.613" stroke-linecap="round"/>
  <line x1="92.95" y1="387.85" x2="86.34" y2="386.76" stroke="#C9A84C" stroke-width="3.443" opacity="0.601" stroke-linecap="round"/>
  <line x1="86.34" y1="386.76" x2="80.17" y2="385.29" stroke="#C9A84C" stroke-width="3.369" opacity="0.588" stroke-linecap="round"/>
  <line x1="80.17" y1="385.29" x2="74.47" y2="383.46" stroke="#C9A84C" stroke-width="3.292" opacity="0.575" stroke-linecap="round"/>
  <line x1="74.47" y1="383.46" x2="69.25" y2="381.25" stroke="#C9A84C" stroke-width="3.215" opacity="0.562" stroke-linecap="round"/>
  <line x1="69.25" y1="381.25" x2="64.52" y2="378.69" stroke="#C9A84C" stroke-width="3.136" opacity="0.549" stroke-linecap="round"/>
  <line x1="64.52" y1="378.69" x2="60.31" y2="375.78" stroke="#C9A84C" stroke-width="3.056" opacity="0.535" stroke-linecap="round"/>
  <line x1="60.31" y1="375.78" x2="56.61" y2="372.52" stroke="#C9A84C" stroke-width="2.976" opacity="0.522" stroke-linecap="round"/>
  <line x1="56.61" y1="372.52" x2="53.44" y2="368.92" stroke="#C9A84C" stroke-width="2.894" opacity="0.508" stroke-linecap="round"/>
  <line x1="53.44" y1="368.92" x2="50.81" y2="365.00" stroke="#C9A84C" stroke-width="2.813" opacity="0.494" stroke-linecap="round"/>
  <line x1="50.81" y1="365.00" x2="48.73" y2="360.76" stroke="#C9A84C" stroke-width="2.731" opacity="0.481" stroke-linecap="round"/>
  <line x1="48.73" y1="360.76" x2="47.20" y2="356.22" stroke="#C9A84C" stroke-width="2.650" opacity="0.467" stroke-linecap="round"/>
  <line x1="47.20" y1="356.22" x2="46.23" y2="351.39" stroke="#C9A84C" stroke-width="2.568" opacity="0.453" stroke-linecap="round"/>
  <line x1="46.23" y1="351.39" x2="45.81" y2="346.28" stroke="#C9A84C" stroke-width="2.488" opacity="0.440" stroke-linecap="round"/>
  <line x1="45.81" y1="346.28" x2="45.95" y2="340.91" stroke="#C9A84C" stroke-width="2.408" opacity="0.426" stroke-linecap="round"/>
  <line x1="45.95" y1="340.91" x2="46.66" y2="335.29" stroke="#C9A84C" stroke-width="2.329" opacity="0.413" stroke-linecap="round"/>
  <line x1="46.66" y1="335.29" x2="47.92" y2="329.43" stroke="#C9A84C" stroke-width="2.252" opacity="0.400" stroke-linecap="round"/>
  <line x1="47.92" y1="329.43" x2="49.73" y2="323.36" stroke="#C9A84C" stroke-width="2.175" opacity="0.387" stroke-linecap="round"/>
  <line x1="49.73" y1="323.36" x2="52.09" y2="317.08" stroke="#C9A84C" stroke-width="2.101" opacity="0.374" stroke-linecap="round"/>
  <line x1="52.09" y1="317.08" x2="55.00" y2="310.62" stroke="#C9A84C" stroke-width="2.028" opacity="0.362" stroke-linecap="round"/>
  <line x1="55.00" y1="310.62" x2="58.44" y2="304.00" stroke="#C9A84C" stroke-width="1.957" opacity="0.350" stroke-linecap="round"/>
  <line x1="58.44" y1="304.00" x2="62.40" y2="297.22" stroke="#C9A84C" stroke-width="1.889" opacity="0.339" stroke-linecap="round"/>
  <line x1="62.40" y1="297.22" x2="66.88" y2="290.32" stroke="#C9A84C" stroke-width="1.823" opacity="0.328" stroke-linecap="round"/>
  <line x1="66.88" y1="290.32" x2="71.87" y2="283.31" stroke="#C9A84C" stroke-width="1.759" opacity="0.317" stroke-linecap="round"/>
  <line x1="71.87" y1="283.31" x2="77.33" y2="276.20" stroke="#C9A84C" stroke-width="1.699" opacity="0.307" stroke-linecap="round"/>
  <line x1="77.33" y1="276.20" x2="83.28" y2="269.03" stroke="#C9A84C" stroke-width="1.641" opacity="0.297" stroke-linecap="round"/>
  <line x1="83.28" y1="269.03" x2="89.68" y2="261.80" stroke="#C9A84C" stroke-width="1.586" opacity="0.288" stroke-linecap="round"/>
  <line x1="89.68" y1="261.80" x2="96.52" y2="254.54" stroke="#C9A84C" stroke-width="1.535" opacity="0.279" stroke-linecap="round"/>
  <line x1="96.52" y1="254.54" x2="103.78" y2="247.27" stroke="#C9A84C" stroke-width="1.487" opacity="0.271" stroke-linecap="round"/>
  <line x1="103.78" y1="247.27" x2="111.44" y2="240.00" stroke="#C9A84C" stroke-width="1.443" opacity="0.264" stroke-linecap="round"/>
  <line x1="111.44" y1="240.00" x2="119.48" y2="232.76" stroke="#C9A84C" stroke-width="1.402" opacity="0.257" stroke-linecap="round"/>
  <line x1="119.48" y1="232.76" x2="127.87" y2="225.57" stroke="#C9A84C" stroke-width="1.365" opacity="0.251" stroke-linecap="round"/>
  <line x1="127.87" y1="225.57" x2="136.61" y2="218.45" stroke="#C9A84C" stroke-width="1.331" opacity="0.245" stroke-linecap="round"/>
  <line x1="136.61" y1="218.45" x2="145.65" y2="211.41" stroke="#C9A84C" stroke-width="1.302" opacity="0.240" stroke-linecap="round"/>
  <line x1="145.65" y1="211.41" x2="154.98" y2="204.48" stroke="#C9A84C" stroke-width="1.277" opacity="0.236" stroke-linecap="round"/>
  <line x1="154.98" y1="204.48" x2="164.57" y2="197.67" stroke="#C9A84C" stroke-width="1.256" opacity="0.232" stroke-linecap="round"/>
  <line x1="164.57" y1="197.67" x2="174.39" y2="191.01" stroke="#C9A84C" stroke-width="1.239" opacity="0.229" stroke-linecap="round"/>
  <line x1="174.39" y1="191.01" x2="184.43" y2="184.51" stroke="#C9A84C" stroke-width="1.226" opacity="0.227" stroke-linecap="round"/>
  <line x1="184.43" y1="184.51" x2="194.64" y2="178.18" stroke="#C9A84C" stroke-width="1.218" opacity="0.226" stroke-linecap="round"/>
  <line x1="194.64" y1="178.18" x2="205.00" y2="172.06" stroke="#C9A84C" stroke-width="1.213" opacity="0.225" stroke-linecap="round"/>
  <line x1="205.00" y1="172.06" x2="215.49" y2="166.15" stroke="#C9A84C" stroke-width="1.213" opacity="0.225" stroke-linecap="round"/>
  <line x1="215.49" y1="166.15" x2="226.07" y2="160.46" stroke="#C9A84C" stroke-width="1.218" opacity="0.226" stroke-linecap="round"/>
  <line x1="226.07" y1="160.46" x2="236.71" y2="155.03" stroke="#C9A84C" stroke-width="1.226" opacity="0.227" stroke-linecap="round"/>
  <line x1="236.71" y1="155.03" x2="247.40" y2="149.85" stroke="#C9A84C" stroke-width="1.239" opacity="0.229" stroke-linecap="round"/>
  <line x1="247.40" y1="149.85" x2="258.09" y2="144.95" stroke="#C9A84C" stroke-width="1.256" opacity="0.232" stroke-linecap="round"/>
  <line x1="258.09" y1="144.95" x2="268.75" y2="140.34" stroke="#C9A84C" stroke-width="1.277" opacity="0.236" stroke-linecap="round"/>
  <line x1="268.75" y1="140.34" x2="279.37" y2="136.02" stroke="#C9A84C" stroke-width="1.302" opacity="0.240" stroke-linecap="round"/>
  <line x1="279.37" y1="136.02" x2="289.91" y2="132.02" stroke="#C9A84C" stroke-width="1.331" opacity="0.245" stroke-linecap="round"/>
  <line x1="289.91" y1="132.02" x2="300.33" y2="128.34" stroke="#C9A84C" stroke-width="1.365" opacity="0.251" stroke-linecap="round"/>
  <line x1="300.33" y1="128.34" x2="310.62" y2="125.00" stroke="#C9A84C" stroke-width="1.402" opacity="0.257" stroke-linecap="round"/>
  <line x1="310.62" y1="125.00" x2="320.74" y2="122.00" stroke="#C9A84C" stroke-width="1.443" opacity="0.264" stroke-linecap="round"/>
  <line x1="320.74" y1="122.00" x2="330.67" y2="119.35" stroke="#C9A84C" stroke-width="1.487" opacity="0.271" stroke-linecap="round"/>
  <line x1="330.67" y1="119.35" x2="340.38" y2="117.06" stroke="#C9A84C" stroke-width="1.535" opacity="0.279" stroke-linecap="round"/>
  <line x1="340.38" y1="117.06" x2="349.84" y2="115.13" stroke="#C9A84C" stroke-width="1.586" opacity="0.288" stroke-linecap="round"/>
  <line x1="349.84" y1="115.13" x2="359.03" y2="113.57" stroke="#C9A84C" stroke-width="1.641" opacity="0.297" stroke-linecap="round"/>
  <line x1="359.03" y1="113.57" x2="367.91" y2="112.38" stroke="#C9A84C" stroke-width="1.699" opacity="0.307" stroke-linecap="round"/>
  <line x1="367.91" y1="112.38" x2="376.48" y2="111.58" stroke="#C9A84C" stroke-width="1.759" opacity="0.317" stroke-linecap="round"/>
  <line x1="376.48" y1="111.58" x2="384.69" y2="111.15" stroke="#C9A84C" stroke-width="1.823" opacity="0.328" stroke-linecap="round"/>
  <line x1="384.69" y1="111.15" x2="392.54" y2="111.10" stroke="#C9A84C" stroke-width="1.889" opacity="0.339" stroke-linecap="round"/>
  <line x1="392.54" y1="111.10" x2="400.00" y2="111.44" stroke="#C9A84C" stroke-width="1.957" opacity="0.350" stroke-linecap="round"/>
  <line x1="400.00" y1="111.44" x2="407.05" y2="112.15" stroke="#C9A84C" stroke-width="2.028" opacity="0.362" stroke-linecap="round"/>
  <line x1="407.05" y1="112.15" x2="413.66" y2="113.24" stroke="#C9A84C" stroke-width="2.101" opacity="0.374" stroke-linecap="round"/>
  <line x1="413.66" y1="113.24" x2="419.83" y2="114.71" stroke="#C9A84C" stroke-width="2.175" opacity="0.387" stroke-linecap="round"/>
  <line x1="419.83" y1="114.71" x2="425.53" y2="116.54" stroke="#C9A84C" stroke-width="2.252" opacity="0.400" stroke-linecap="round"/>
  <line x1="425.53" y1="116.54" x2="430.75" y2="118.75" stroke="#C9A84C" stroke-width="2.329" opacity="0.413" stroke-linecap="round"/>
  <line x1="430.75" y1="118.75" x2="435.48" y2="121.31" stroke="#C9A84C" stroke-width="2.408" opacity="0.426" stroke-linecap="round"/>
  <line x1="435.48" y1="121.31" x2="439.69" y2="124.22" stroke="#C9A84C" stroke-width="2.488" opacity="0.440" stroke-linecap="round"/>
  <line x1="439.69" y1="124.22" x2="443.39" y2="127.48" stroke="#C9A84C" stroke-width="2.568" opacity="0.453" stroke-linecap="round"/>
  <line x1="443.39" y1="127.48" x2="446.56" y2="131.08" stroke="#C9A84C" stroke-width="2.650" opacity="0.467" stroke-linecap="round"/>
  <line x1="446.56" y1="131.08" x2="449.19" y2="135.00" stroke="#C9A84C" stroke-width="2.731" opacity="0.481" stroke-linecap="round"/>
  <line x1="449.19" y1="109.00" x2="451.27" y2="113.24" stroke="#C9A84C" stroke-width="1.875" opacity="0.330" stroke-linecap="round"/>
  <line x1="451.27" y1="113.24" x2="452.80" y2="117.78" stroke="#C9A84C" stroke-width="1.930" opacity="0.339" stroke-linecap="round"/>
  <line x1="452.80" y1="117.78" x2="453.77" y2="122.61" stroke="#C9A84C" stroke-width="1.984" opacity="0.348" stroke-linecap="round"/>
  <line x1="453.77" y1="122.61" x2="454.19" y2="127.72" stroke="#C9A84C" stroke-width="2.037" opacity="0.357" stroke-linecap="round"/>
  <line x1="454.19" y1="127.72" x2="454.05" y2="133.09" stroke="#C9A84C" stroke-width="2.091" opacity="0.366" stroke-linecap="round"/>
  <line x1="454.05" y1="133.09" x2="453.34" y2="138.71" stroke="#C9A84C" stroke-width="2.143" opacity="0.375" stroke-linecap="round"/>
  <line x1="453.34" y1="138.71" x2="452.08" y2="144.57" stroke="#C9A84C" stroke-width="2.195" opacity="0.383" stroke-linecap="round"/>
  <line x1="452.08" y1="144.57" x2="450.27" y2="150.64" stroke="#C9A84C" stroke-width="2.246" opacity="0.392" stroke-linecap="round"/>
  <line x1="450.27" y1="150.64" x2="447.91" y2="156.92" stroke="#C9A84C" stroke-width="2.296" opacity="0.400" stroke-linecap="round"/>
  <line x1="447.91" y1="156.92" x2="445.00" y2="163.38" stroke="#C9A84C" stroke-width="2.344" opacity="0.409" stroke-linecap="round"/>
  <line x1="445.00" y1="163.38" x2="441.56" y2="170.00" stroke="#C9A84C" stroke-width="2.391" opacity="0.416" stroke-linecap="round"/>
  <line x1="441.56" y1="170.00" x2="437.60" y2="176.78" stroke="#C9A84C" stroke-width="2.437" opacity="0.424" stroke-linecap="round"/>
  <line x1="437.60" y1="176.78" x2="433.12" y2="183.68" stroke="#C9A84C" stroke-width="2.481" opacity="0.432" stroke-linecap="round"/>
  <line x1="433.12" y1="183.68" x2="428.13" y2="190.69" stroke="#C9A84C" stroke-width="2.523" opacity="0.439" stroke-linecap="round"/>
  <line x1="428.13" y1="190.69" x2="422.67" y2="197.80" stroke="#C9A84C" stroke-width="2.564" opacity="0.445" stroke-linecap="round"/>
  <line x1="422.67" y1="197.80" x2="416.72" y2="204.97" stroke="#C9A84C" stroke-width="2.602" opacity="0.452" stroke-linecap="round"/>
  <line x1="416.72" y1="204.97" x2="410.32" y2="212.20" stroke="#C9A84C" stroke-width="2.638" opacity="0.458" stroke-linecap="round"/>
  <line x1="410.32" y1="212.20" x2="403.48" y2="219.46" stroke="#C9A84C" stroke-width="2.673" opacity="0.464" stroke-linecap="round"/>
  <line x1="403.48" y1="219.46" x2="396.22" y2="226.73" stroke="#C9A84C" stroke-width="2.705" opacity="0.469" stroke-linecap="round"/>
  <line x1="396.22" y1="226.73" x2="388.56" y2="234.00" stroke="#C9A84C" stroke-width="2.734" opacity="0.474" stroke-linecap="round"/>
  <line x1="388.56" y1="234.00" x2="380.52" y2="241.24" stroke="#C9A84C" stroke-width="2.762" opacity="0.479" stroke-linecap="round"/>
  <line x1="380.52" y1="241.24" x2="372.13" y2="248.43" stroke="#C9A84C" stroke-width="2.786" opacity="0.483" stroke-linecap="round"/>
  <line x1="372.13" y1="248.43" x2="363.39" y2="255.55" stroke="#C9A84C" stroke-width="2.808" opacity="0.487" stroke-linecap="round"/>
  <line x1="363.39" y1="255.55" x2="354.35" y2="262.59" stroke="#C9A84C" stroke-width="2.828" opacity="0.490" stroke-linecap="round"/>
  <line x1="354.35" y1="262.59" x2="345.02" y2="269.52" stroke="#C9A84C" stroke-width="2.845" opacity="0.493" stroke-linecap="round"/>
  <line x1="345.02" y1="269.52" x2="335.43" y2="276.33" stroke="#C9A84C" stroke-width="2.859" opacity="0.495" stroke-linecap="round"/>
  <line x1="335.43" y1="276.33" x2="325.61" y2="282.99" stroke="#C9A84C" stroke-width="2.870" opacity="0.497" stroke-linecap="round"/>
  <line x1="325.61" y1="282.99" x2="315.57" y2="289.49" stroke="#C9A84C" stroke-width="2.879" opacity="0.499" stroke-linecap="round"/>
  <line x1="315.57" y1="289.49" x2="305.36" y2="295.82" stroke="#C9A84C" stroke-width="2.884" opacity="0.499" stroke-linecap="round"/>
  <line x1="305.36" y1="295.82" x2="295.00" y2="301.94" stroke="#C9A84C" stroke-width="2.887" opacity="0.500" stroke-linecap="round"/>
  <line x1="295.00" y1="301.94" x2="284.51" y2="307.85" stroke="#C9A84C" stroke-width="2.887" opacity="0.500" stroke-linecap="round"/>
  <line x1="284.51" y1="307.85" x2="273.93" y2="313.54" stroke="#C9A84C" stroke-width="2.884" opacity="0.499" stroke-linecap="round"/>
  <line x1="273.93" y1="313.54" x2="263.29" y2="318.97" stroke="#C9A84C" stroke-width="2.879" opacity="0.499" stroke-linecap="round"/>
  <line x1="263.29" y1="318.97" x2="252.60" y2="324.15" stroke="#C9A84C" stroke-width="2.870" opacity="0.497" stroke-linecap="round"/>
  <line x1="252.60" y1="324.15" x2="241.91" y2="329.05" stroke="#C9A84C" stroke-width="2.859" opacity="0.495" stroke-linecap="round"/>
  <line x1="241.91" y1="329.05" x2="231.25" y2="333.66" stroke="#C9A84C" stroke-width="2.845" opacity="0.493" stroke-linecap="round"/>
  <line x1="231.25" y1="333.66" x2="220.63" y2="337.98" stroke="#C9A84C" stroke-width="2.828" opacity="0.490" stroke-linecap="round"/>
  <line x1="220.63" y1="337.98" x2="210.09" y2="341.98" stroke="#C9A84C" stroke-width="2.808" opacity="0.487" stroke-linecap="round"/>
  <line x1="210.09" y1="341.98" x2="199.67" y2="345.66" stroke="#C9A84C" stroke-width="2.786" opacity="0.483" stroke-linecap="round"/>
  <line x1="199.67" y1="345.66" x2="189.38" y2="349.00" stroke="#C9A84C" stroke-width="2.762" opacity="0.479" stroke-linecap="round"/>
  <line x1="189.38" y1="349.00" x2="179.26" y2="352.00" stroke="#C9A84C" stroke-width="2.734" opacity="0.474" stroke-linecap="round"/>
  <line x1="179.26" y1="352.00" x2="169.33" y2="354.65" stroke="#C9A84C" stroke-width="2.705" opacity="0.469" stroke-linecap="round"/>
  <line x1="169.33" y1="354.65" x2="159.62" y2="356.94" stroke="#C9A84C" stroke-width="2.673" opacity="0.464" stroke-linecap="round"/>
  <line x1="159.62" y1="356.94" x2="150.16" y2="358.87" stroke="#C9A84C" stroke-width="2.638" opacity="0.458" stroke-linecap="round"/>
  <line x1="150.16" y1="358.87" x2="140.97" y2="360.43" stroke="#C9A84C" stroke-width="2.602" opacity="0.452" stroke-linecap="round"/>
  <line x1="140.97" y1="360.43" x2="132.09" y2="361.62" stroke="#C9A84C" stroke-width="2.564" opacity="0.445" stroke-linecap="round"/>
  <line x1="132.09" y1="361.62" x2="123.52" y2="362.42" stroke="#C9A84C" stroke-width="2.523" opacity="0.439" stroke-linecap="round"/>
  <line x1="123.52" y1="362.42" x2="115.31" y2="362.85" stroke="#C9A84C" stroke-width="2.481" opacity="0.432" stroke-linecap="round"/>
  <line x1="115.31" y1="362.85" x2="107.46" y2="362.90" stroke="#C9A84C" stroke-width="2.437" opacity="0.424" stroke-linecap="round"/>
  <line x1="107.46" y1="362.90" x2="100.00" y2="362.56" stroke="#C9A84C" stroke-width="2.391" opacity="0.416" stroke-linecap="round"/>
  <line x1="100.00" y1="362.56" x2="92.95" y2="361.85" stroke="#C9A84C" stroke-width="2.344" opacity="0.409" stroke-linecap="round"/>
  <line x1="92.95" y1="361.85" x2="86.34" y2="360.76" stroke="#C9A84C" stroke-width="2.296" opacity="0.400" stroke-linecap="round"/>
  <line x1="86.34" y1="360.76" x2="80.17" y2="359.29" stroke="#C9A84C" stroke-width="2.246" opacity="0.392" stroke-linecap="round"/>
  <line x1="80.17" y1="359.29" x2="74.47" y2="357.46" stroke="#C9A84C" stroke-width="2.195" opacity="0.383" stroke-linecap="round"/>
  <line x1="74.47" y1="357.46" x2="69.25" y2="355.25" stroke="#C9A84C" stroke-width="2.143" opacity="0.375" stroke-linecap="round"/>
  <line x1="69.25" y1="355.25" x2="64.52" y2="352.69" stroke="#C9A84C" stroke-width="2.091" opacity="0.366" stroke-linecap="round"/>
  <line x1="64.52" y1="352.69" x2="60.31" y2="349.78" stroke="#C9A84C" stroke-width="2.037" opacity="0.357" stroke-linecap="round"/>
  <line x1="60.31" y1="349.78" x2="56.61" y2="346.52" stroke="#C9A84C" stroke-width="1.984" opacity="0.348" stroke-linecap="round"/>
  <line x1="56.61" y1="346.52" x2="53.44" y2="342.92" stroke="#C9A84C" stroke-width="1.930" opacity="0.339" stroke-linecap="round"/>
  <line x1="53.44" y1="342.92" x2="50.81" y2="339.00" stroke="#C9A84C" stroke-width="1.875" opacity="0.330" stroke-linecap="round"/>
  <line x1="50.81" y1="339.00" x2="48.73" y2="334.76" stroke="#C9A84C" stroke-width="1.821" opacity="0.320" stroke-linecap="round"/>
  <line x1="48.73" y1="334.76" x2="47.20" y2="330.22" stroke="#C9A84C" stroke-width="1.766" opacity="0.311" stroke-linecap="round"/>
  <line x1="47.20" y1="330.22" x2="46.23" y2="325.39" stroke="#C9A84C" stroke-width="1.712" opacity="0.302" stroke-linecap="round"/>
  <line x1="46.23" y1="325.39" x2="45.81" y2="320.28" stroke="#C9A84C" stroke-width="1.659" opacity="0.293" stroke-linecap="round"/>
  <line x1="45.81" y1="320.28" x2="45.95" y2="314.91" stroke="#C9A84C" stroke-width="1.605" opacity="0.284" stroke-linecap="round"/>
  <line x1="45.95" y1="314.91" x2="46.66" y2="309.29" stroke="#C9A84C" stroke-width="1.553" opacity="0.275" stroke-linecap="round"/>
  <line x1="46.66" y1="309.29" x2="47.92" y2="303.43" stroke="#C9A84C" stroke-width="1.501" opacity="0.267" stroke-linecap="round"/>
  <line x1="47.92" y1="303.43" x2="49.73" y2="297.36" stroke="#C9A84C" stroke-width="1.450" opacity="0.258" stroke-linecap="round"/>
  <line x1="49.73" y1="297.36" x2="52.09" y2="291.08" stroke="#C9A84C" stroke-width="1.400" opacity="0.250" stroke-linecap="round"/>
  <line x1="52.09" y1="291.08" x2="55.00" y2="284.62" stroke="#C9A84C" stroke-width="1.352" opacity="0.241" stroke-linecap="round"/>
  <line x1="55.00" y1="284.62" x2="58.44" y2="278.00" stroke="#C9A84C" stroke-width="1.305" opacity="0.234" stroke-linecap="round"/>
  <line x1="58.44" y1="278.00" x2="62.40" y2="271.22" stroke="#C9A84C" stroke-width="1.259" opacity="0.226" stroke-linecap="round"/>
  <line x1="62.40" y1="271.22" x2="66.88" y2="264.32" stroke="#C9A84C" stroke-width="1.215" opacity="0.218" stroke-linecap="round"/>
  <line x1="66.88" y1="264.32" x2="71.87" y2="257.31" stroke="#C9A84C" stroke-width="1.173" opacity="0.211" stroke-linecap="round"/>
  <line x1="71.87" y1="257.31" x2="77.33" y2="250.20" stroke="#C9A84C" stroke-width="1.132" opacity="0.205" stroke-linecap="round"/>
  <line x1="77.33" y1="250.20" x2="83.28" y2="243.03" stroke="#C9A84C" stroke-width="1.094" opacity="0.198" stroke-linecap="round"/>
  <line x1="83.28" y1="243.03" x2="89.68" y2="235.80" stroke="#C9A84C" stroke-width="1.058" opacity="0.192" stroke-linecap="round"/>
  <line x1="89.68" y1="235.80" x2="96.52" y2="228.54" stroke="#C9A84C" stroke-width="1.023" opacity="0.186" stroke-linecap="round"/>
  <line x1="96.52" y1="228.54" x2="103.78" y2="221.27" stroke="#C9A84C" stroke-width="0.991" opacity="0.181" stroke-linecap="round"/>
  <line x1="103.78" y1="221.27" x2="111.44" y2="214.00" stroke="#C9A84C" stroke-width="0.962" opacity="0.176" stroke-linecap="round"/>
  <line x1="111.44" y1="214.00" x2="119.48" y2="206.76" stroke="#C9A84C" stroke-width="0.934" opacity="0.171" stroke-linecap="round"/>
  <line x1="119.48" y1="206.76" x2="127.87" y2="199.57" stroke="#C9A84C" stroke-width="0.910" opacity="0.167" stroke-linecap="round"/>
  <line x1="127.87" y1="199.57" x2="136.61" y2="192.45" stroke="#C9A84C" stroke-width="0.888" opacity="0.163" stroke-linecap="round"/>
  <line x1="136.61" y1="192.45" x2="145.65" y2="185.41" stroke="#C9A84C" stroke-width="0.868" opacity="0.160" stroke-linecap="round"/>
  <line x1="145.65" y1="185.41" x2="154.98" y2="178.48" stroke="#C9A84C" stroke-width="0.851" opacity="0.157" stroke-linecap="round"/>
  <line x1="154.98" y1="178.48" x2="164.57" y2="171.67" stroke="#C9A84C" stroke-width="0.837" opacity="0.155" stroke-linecap="round"/>
  <line x1="164.57" y1="171.67" x2="174.39" y2="165.01" stroke="#C9A84C" stroke-width="0.826" opacity="0.153" stroke-linecap="round"/>
  <line x1="174.39" y1="165.01" x2="184.43" y2="158.51" stroke="#C9A84C" stroke-width="0.817" opacity="0.151" stroke-linecap="round"/>
  <line x1="184.43" y1="158.51" x2="194.64" y2="152.18" stroke="#C9A84C" stroke-width="0.812" opacity="0.151" stroke-linecap="round"/>
  <line x1="194.64" y1="152.18" x2="205.00" y2="146.06" stroke="#C9A84C" stroke-width="0.809" opacity="0.150" stroke-linecap="round"/>
  <line x1="205.00" y1="146.06" x2="215.49" y2="140.15" stroke="#C9A84C" stroke-width="0.809" opacity="0.150" stroke-linecap="round"/>
  <line x1="215.49" y1="140.15" x2="226.07" y2="134.46" stroke="#C9A84C" stroke-width="0.812" opacity="0.151" stroke-linecap="round"/>
  <line x1="226.07" y1="134.46" x2="236.71" y2="129.03" stroke="#C9A84C" stroke-width="0.817" opacity="0.151" stroke-linecap="round"/>
  <line x1="236.71" y1="129.03" x2="247.40" y2="123.85" stroke="#C9A84C" stroke-width="0.826" opacity="0.153" stroke-linecap="round"/>
  <line x1="247.40" y1="123.85" x2="258.09" y2="118.95" stroke="#C9A84C" stroke-width="0.837" opacity="0.155" stroke-linecap="round"/>
  <line x1="258.09" y1="118.95" x2="268.75" y2="114.34" stroke="#C9A84C" stroke-width="0.851" opacity="0.157" stroke-linecap="round"/>
  <line x1="268.75" y1="114.34" x2="279.37" y2="110.02" stroke="#C9A84C" stroke-width="0.868" opacity="0.160" stroke-linecap="round"/>
  <line x1="279.37" y1="110.02" x2="289.91" y2="106.02" stroke="#C9A84C" stroke-width="0.888" opacity="0.163" stroke-linecap="round"/>
  <line x1="289.91" y1="106.02" x2="300.33" y2="102.34" stroke="#C9A84C" stroke-width="0.910" opacity="0.167" stroke-linecap="round"/>
  <line x1="300.33" y1="102.34" x2="310.62" y2="99.00" stroke="#C9A84C" stroke-width="0.934" opacity="0.171" stroke-linecap="round"/>
  <line x1="310.62" y1="99.00" x2="320.74" y2="96.00" stroke="#C9A84C" stroke-width="0.962" opacity="0.176" stroke-linecap="round"/>
  <line x1="320.74" y1="96.00" x2="330.67" y2="93.35" stroke="#C9A84C" stroke-width="0.991" opacity="0.181" stroke-linecap="round"/>
  <line x1="330.67" y1="93.35" x2="340.38" y2="91.06" stroke="#C9A84C" stroke-width="1.023" opacity="0.186" stroke-linecap="round"/>
  <line x1="340.38" y1="91.06" x2="349.84" y2="89.13" stroke="#C9A84C" stroke-width="1.058" opacity="0.192" stroke-linecap="round"/>
  <line x1="349.84" y1="89.13" x2="359.03" y2="87.57" stroke="#C9A84C" stroke-width="1.094" opacity="0.198" stroke-linecap="round"/>
  <line x1="359.03" y1="87.57" x2="367.91" y2="86.38" stroke="#C9A84C" stroke-width="1.132" opacity="0.205" stroke-linecap="round"/>
  <line x1="367.91" y1="86.38" x2="376.48" y2="85.58" stroke="#C9A84C" stroke-width="1.173" opacity="0.211" stroke-linecap="round"/>
  <line x1="376.48" y1="85.58" x2="384.69" y2="85.15" stroke="#C9A84C" stroke-width="1.215" opacity="0.218" stroke-linecap="round"/>
  <line x1="384.69" y1="85.15" x2="392.54" y2="85.10" stroke="#C9A84C" stroke-width="1.259" opacity="0.226" stroke-linecap="round"/>
  <line x1="392.54" y1="85.10" x2="400.00" y2="85.44" stroke="#C9A84C" stroke-width="1.305" opacity="0.234" stroke-linecap="round"/>
  <line x1="400.00" y1="85.44" x2="407.05" y2="86.15" stroke="#C9A84C" stroke-width="1.352" opacity="0.241" stroke-linecap="round"/>
  <line x1="407.05" y1="86.15" x2="413.66" y2="87.24" stroke="#C9A84C" stroke-width="1.400" opacity="0.250" stroke-linecap="round"/>
  <line x1="413.66" y1="87.24" x2="419.83" y2="88.71" stroke="#C9A84C" stroke-width="1.450" opacity="0.258" stroke-linecap="round"/>
  <line x1="419.83" y1="88.71" x2="425.53" y2="90.54" stroke="#C9A84C" stroke-width="1.501" opacity="0.267" stroke-linecap="round"/>
  <line x1="425.53" y1="90.54" x2="430.75" y2="92.75" stroke="#C9A84C" stroke-width="1.553" opacity="0.275" stroke-linecap="round"/>
  <line x1="430.75" y1="92.75" x2="435.48" y2="95.31" stroke="#C9A84C" stroke-width="1.605" opacity="0.284" stroke-linecap="round"/>
  <line x1="435.48" y1="95.31" x2="439.69" y2="98.22" stroke="#C9A84C" stroke-width="1.659" opacity="0.293" stroke-linecap="round"/>
  <line x1="439.69" y1="98.22" x2="443.39" y2="101.48" stroke="#C9A84C" stroke-width="1.712" opacity="0.302" stroke-linecap="round"/>
  <line x1="443.39" y1="101.48" x2="446.56" y2="105.08" stroke="#C9A84C" stroke-width="1.766" opacity="0.311" stroke-linecap="round"/>
  <line x1="446.56" y1="105.08" x2="449.19" y2="109.00" stroke="#C9A84C" stroke-width="1.821" opacity="0.320" stroke-linecap="round"/>
  <polygon points="250.00,207.50 256.00,244.00 261.31,238.69 256.00,256.00 292.50,250.00 256.00,256.00 261.31,261.31 244.00,256.00 250.00,292.50 244.00,256.00 238.69,261.31 244.00,244.00 207.50,250.00 244.00,244.00 238.69,238.69 256.00,244.00" fill="#C9A84C" opacity="1"/>
</svg>